<?xml version="1.0" encoding="utf-8"?>
<svg id="master-artboard" viewBox="0 0 496.6589660644531 246.3695068359375" version="1.1" xmlns="http://www.w3.org/2000/svg" x="0px" y="0px" style="enable-background:new 0 0 336 235.2;" width="496.6589660644531px" height="246.3695068359375px"><rect id="ee-background" x="0" y="0" width="496.6589660644531" height="246.3695068359375" style="fill: white; fill-opacity: 0; pointer-events: none;"/>














<g transform="matrix(1.5879528522491455, 0, 0, 1.5879528522491455, -869.275390625, -223.98640382289886)"><g transform="matrix(1, 0, 0, 1, 0, 0)"><g transform="matrix(1, 0, 0, 1, 0, 0)">
					<g>
						<g>
							<path fill="#FBB03B" d="M854.2,276H668.9V151.4c0-5.5,4.5-10,10-10h165.3c5.5,0,10,4.5,10,10V276z"/>
							<path d="M 668.900024 207 H 854.200027 V 276 H 668.900024 V 207 Z" fill="#ED9C1F"/>
							<path fill="#603813" d="M668.9,254.9V227v-64.8h-40.7c-11.3,0-21.6,6.8-26,17.2L581.8,227h-10.3c-10.8,0-19.5,8.7-19.5,19.5&#10;&#9;&#9;&#9;&#9;&#9;&#9;&#9;&#9;V270h116.8V254.9z"/>
							<path fill="#8ADCF9" d="M601.3,227.8h59V174h-32.7c-5.5,0-10.4,3.4-12.3,8.5l-16.1,42.3C598.7,226.3,599.8,227.8,601.3,227.8&#10;&#9;&#9;&#9;&#9;&#9;&#9;&#9;&#9;z"/>
							<path fill="#79CFED" d="M627.7,174c-4.7,0-9,2.5-11.4,6.5l44.1,47.2V174H627.7z"/>
							<path fill="#B3B3B3" d="M854.9,277.4H552.2c-2.3,0-4.1-1.9-4.1-4.1V272c0-2.3,1.9-4.1,4.1-4.1h302.7c2.3,0,4.1,1.9,4.1,4.1&#10;&#9;&#9;&#9;&#9;&#9;&#9;&#9;&#9;v1.2C859,275.5,857.2,277.4,854.9,277.4z"/>
						</g>
						<g>
							<g>
								<path d="M 628.199987 273 A 23.9 23.9 0 0 1 604.299988 296.9 A 23.9 23.9 0 0 1 580.399988 273 A 23.9 23.9 0 0 1 604.299988 249.1 A 23.9 23.9 0 0 1 628.199987 273 Z" fill="#192024"/>
								<path fill="#252F36" d="M604.3,291c-9.9,0-18-8.1-18-18c0-9.9,8.1-18,18-18c9.9,0,18,8.1,18,18&#10;&#9;&#9;&#9;&#9;&#9;&#9;&#9;&#9;&#9;C622.4,282.9,614.3,291,604.3,291z"/>
								<path d="M 612.099988 273 A 7.8 7.8 0 0 1 604.299988 280.8 A 7.8 7.8 0 0 1 596.499988 273 A 7.8 7.8 0 0 1 604.299988 265.2 A 7.8 7.8 0 0 1 612.099988 273 Z" fill="#FFFFFF"/>
							</g>
							<g>
								<path d="M 777.699987 273 A 23.9 23.9 0 0 1 753.799988 296.9 A 23.9 23.9 0 0 1 729.899988 273 A 23.9 23.9 0 0 1 753.799988 249.1 A 23.9 23.9 0 0 1 777.699987 273 Z" fill="#192024"/>
								<path fill="#252F36" d="M753.8,291c-9.9,0-18-8.1-18-18c0-9.9,8.1-18,18-18c9.9,0,18,8.1,18,18&#10;&#9;&#9;&#9;&#9;&#9;&#9;&#9;&#9;&#9;C771.8,282.9,763.8,291,753.8,291z"/>
								<path d="M 761.599988 273 A 7.8 7.8 0 0 1 753.799988 280.8 A 7.8 7.8 0 0 1 745.999988 273 A 7.8 7.8 0 0 1 753.799988 265.2 A 7.8 7.8 0 0 1 761.599988 273 Z" fill="#FFFFFF"/>
							</g>
							<g>
								<path d="M 826.699987 273 A 23.9 23.9 0 0 1 802.799988 296.9 A 23.9 23.9 0 0 1 778.899988 273 A 23.9 23.9 0 0 1 802.799988 249.1 A 23.9 23.9 0 0 1 826.699987 273 Z" fill="#192024"/>
								<path fill="#252F36" d="M802.8,291c-9.9,0-18-8.1-18-18c0-9.9,8.1-18,18-18c9.9,0,18,8.1,18,18&#10;&#9;&#9;&#9;&#9;&#9;&#9;&#9;&#9;&#9;C820.8,282.9,812.7,291,802.8,291z"/>
								<path d="M 810.599988 273 A 7.8 7.8 0 0 1 802.799988 280.8 A 7.8 7.8 0 0 1 794.999988 273 A 7.8 7.8 0 0 1 802.799988 265.2 A 7.8 7.8 0 0 1 810.599988 273 Z" fill="#FFFFFF"/>
							</g>
						</g>
					</g>
					<g>
						<path fill="#FFFFFF" d="M790.5,177.1l-11.4-19.2l-2.8,4.9c-16.6-9.9-38.4-7.1-51.9,7.7l8.2,7.5c10-10.9,26-12.8,38.2-5.5&#10;&#9;&#9;&#9;&#9;&#9;&#9;&#9;l-2.9,5.1L790.5,177.1z"/>
						<path fill="#FFFFFF" d="M756.4,237.4l22.3,0.5l-2.7-5c17.1-8.9,26.3-28.9,20.9-48.2l-10.7,3c4,14.2-2.8,28.9-15.5,35.3&#10;&#9;&#9;&#9;&#9;&#9;&#9;&#9;l-2.8-5.1L756.4,237.4z"/>
						<path fill="#FFFFFF" d="M720.3,177.2l-11.2,19.4l5.6,0c-0.5,19.3,12.6,37,32.2,41.5l2.5-10.9c-14.4-3.3-24-16.4-23.5-30.6&#10;&#9;&#9;&#9;&#9;&#9;&#9;&#9;l5.8,0L720.3,177.2z"/>
					</g>
				</g></g></g></svg>