<?xml version="1.0" encoding="utf-8"?>
<svg id="master-artboard" viewBox="0 0 1397.3712158203125 270.2060241699219" version="1.1" xmlns="http://www.w3.org/2000/svg" x="0px" y="0px" style="enable-background:new 0 0 336 235.2;" width="1397.3712158203125px" height="270.2060241699219px"><rect id="ee-background" x="0" y="0" width="1397.3712158203125" height="270.2060241699219" style="fill: white; fill-opacity: 0; pointer-events: none;"/><g transform="matrix(0.6129232617959037, -0.16183009743598586, 0.16183009743598586, 0.6129232617959037, -404.6035392314202, -130.41444836505104)"><g transform="matrix(1, 0, 0, 1, 1.1368683772161603e-13, 0)"><path class="st3" d="M746.3,548.8h-92.7c-4.8,0-8.7,3.9-8.7,8.7v220.1c0,4.8,3.9,8.7,8.7,8.7h92.7c4.8,0,8.7-3.9,8.7-8.7V557.5&#10;&#9;C755.1,552.7,751.2,548.8,746.3,548.8L746.3,548.8z M669.7,563.5h60.6c3.5,0,6.4,2.9,6.4,6.4c0,3.5-2.9,6.4-6.4,6.4h-60.6&#10;&#9;c-3.5,0-6.4-2.9-6.4-6.4C663.3,566.4,666.1,563.5,669.7,563.5L669.7,563.5z M700,770.3c-5.4,0-9.8-4.4-9.8-9.8&#10;&#9;c0-5.4,4.4-9.8,9.8-9.8c5.4,0,9.8,4.4,9.8,9.8C709.8,765.9,705.4,770.3,700,770.3L700,770.3z M700,729.5c-7.5,0-13.5-6.1-13.5-13.5&#10;&#9;c0-7.5,6-13.5,13.5-13.5c7.5,0,13.5,6,13.5,13.5C713.5,723.4,707.5,729.5,700,729.5L700,729.5z M739.5,631.7c0,3.6-2.9,6.5-6.5,6.5&#10;&#9;H667c-3.6,0-6.5-2.9-6.5-6.5v-19.9c0-3.6,2.9-6.5,6.5-6.5H733c3.6,0,6.5,2.9,6.5,6.5V631.7z M739.5,631.7" style="fill: rgb(51, 51, 51); opacity: 1;" transform="matrix(1, 0, 0, 1, 1.1368683772161603e-13, 0)"/></g></g><g transform="matrix(0.6065899988380102, 0.16472721785470712, -0.16472721785470712, 0.6065899988380102, 9.958929483674513, -164.86913873317104)"><g transform="matrix(1, 0, 0, 1, 1.1368683772161603e-13, 0)"><path class="st3" d="M1252.1,306.3c-0.3-0.3-0.6-0.5-1-0.5H988.3c-0.4,0-0.8,0.2-1,0.5c-0.3,0.3-0.4,0.7-0.3,1.1c0,0.3,4,25,34.8,25&#10;&#9;h195.9c30.8,0,34.7-24.7,34.8-25C1252.5,307,1252.3,306.6,1252.1,306.3z M1139.5,323.7h-39.5v-9.2h39.5V323.7z" style="fill: rgb(51, 51, 51); opacity: 1;" transform="matrix(1, 0, 0, 1, 1.1368683772161603e-13, 0)"/><path class="st3" d="M1223.8,155.3h-208.1c-3,0-5.5,2.5-5.5,5.5v129.9c0,3.1,2.4,5.5,5.5,5.5h208.1c3,0,5.5-2.5,5.5-5.5V160.8&#10;&#9;C1229.2,157.7,1226.8,155.3,1223.8,155.3z M1210.1,276.8h-180.9V174.6h180.9V276.8z" style="fill: rgb(51, 51, 51); opacity: 1;" transform="matrix(1, 0, 0, 1, 1.1368683772161603e-13, 0)"/></g></g><g transform="matrix(0.5365033745765686, 0, 0, 0.5365033745765686, 409.1222208598666, 30.441866151708012)"><path d="M267.6,318.1l-7.2-20.3H91c0-0.4-0.1-0.8-0.1-1.2v-125c0-13.4,9.2-24.4,20.6-24.4h123.8l-4.6-11.9H103.4&#10;&#9;&#9;c-13.8,0-25,13.2-25,29.6v151.7c0,0.5,0.1,0.9,0.1,1.4H267.6z M49.5,334.7c-10.4,0-18.8,0.8-18.8,10.6c0,12.3,8.4,22.2,18.8,22.2&#10;&#9;&#9;h235.6l-11.6-32.9H49.5z M330.1,259.5l-37.8-136.2c0,0-1.9-11.3-13.9-11.3c-8,0-17,0-17,0s-11.9-0.3-7.6,11.9l40.5,117.5l-22.8-5.2&#10;&#9;&#9;c0,0-11-3.1-6.7,8.4L306.2,373L297,263.9l26.8,6.6C323.8,270.5,334.5,274.6,330.1,259.5z" transform="matrix(1, 0, 0, 1, 0, 0)" style="fill: rgb(51, 51, 51); opacity: 1;"/></g><g transform="matrix(0.8826612011664172, 0.09486105665959416, -0.09486105665959416, 0.8826612011664172, -95.49459847200222, -105.6297958096522)"><g transform="matrix(1, 0, 0, 1, -49.411762237548714, -453.14202880859386)"><g transform="matrix(1, 0, 0, 1, 5.684341886080802e-14, -5.684341886080802e-14)">
			<path class="st2" d="M388.5,687.6v3.3c0,0.4,0.3,0.6,0.7,0.6h99.7c0.3,0,0.6-0.3,0.6-0.6v-3.3c0-0.3-0.3-0.6-0.6-0.6h-99.7&#10;&#9;&#9;&#9;&#9;C388.7,687,388.5,687.3,388.5,687.6z" style="fill-rule: evenodd; clip-rule: evenodd; fill: rgb(51, 51, 51); opacity: 1;"/>
			<path class="st2" d="M421.4,666.3v15.9c0,2,1.6,3.7,3.6,3.7h27.9c2,0,3.6-1.7,3.6-3.7v-15.9c0-2-1.6-3.7-3.6-3.7H425&#10;&#9;&#9;&#9;&#9;C423,662.7,421.4,664.3,421.4,666.3z" style="fill-rule: evenodd; clip-rule: evenodd; fill: rgb(51, 51, 51); opacity: 1;"/>
			<path class="st2" d="M521.6,552.3H356.3c-5,0-9.1,4.2-9.1,9.4v101c0,5.2,4.1,9.4,9.1,9.4h165.4c5,0,9.1-4.2,9.1-9.4v-101&#10;&#9;&#9;&#9;&#9;C530.7,556.5,526.7,552.3,521.6,552.3z M522.7,664.2H356.8V560.8h165.9V664.2z" style="fill-rule: evenodd; clip-rule: evenodd; fill: rgb(51, 51, 51); opacity: 1;"/>
		</g></g></g><g transform="matrix(1.0201492309570312, -0.32338112592697144, 0.32338112592697144, 1.0201492309570312, -435.4846546876702, 112.17206046213238)"><g transform="matrix(1, 0, 0, 1, 1.1368683772161603e-13, 0)"><g transform="matrix(1, 0, 0, 1, 1.1368683772161603e-13, 0)"><path class="st3" d="M795.5,144.4H604.5c-9.2,0-16.8,7.5-16.8,16.8v115.8c0,9.2,7.5,16.8,16.8,16.8h67.7v24.1h-29.5&#10;&#9;c-4.5,0-8.2,3.7-8.2,8.2v11.9c0,4.5,3.7,8.2,8.2,8.2h114.7c4.5,0,8.2-3.7,8.2-8.2V326c0-4.5-3.7-8.2-8.2-8.2h-29.5v-24.1h67.7&#10;&#9;c9.2,0,16.8-7.5,16.8-16.8V161.2C812.3,151.9,804.8,144.4,795.5,144.4L795.5,144.4z M795.2,276.6l-190.4,0.3l-0.3-115.5l190.7-0.3&#10;&#9;V276.6z M795.2,276.6" style="fill: rgb(51, 51, 51); opacity: 1;" transform="matrix(1, 0, 0, 1, 1.1368683772161603e-13, 0)"/></g></g></g><g transform="matrix(0.13974624872207642, -0.050972025841474526, 0.050972025841474526, 0.13974624872207642, -46.77480794988992, 190.87987822028822)"><g transform="matrix(1, 0, 0, 1, 0, 0)">
			<path fill="#CCCCCC" d="M1853.8,710.5c-16.9-16.4-61.8-59.9-136-77.1c-91.3-21.2-192.2,5.3-299.9,78.9l-1.1,0.8l-0.8,1.1&#10;&#9;&#9;&#9;&#9;c-42.1,54.9-49.8,101.3-30.5,183.6l0.4,1.5l0.9,1.3c7.2,10.5,17.4,20.8,17.9,21.2l1.9,1.9l2.7,0.4c5.5,0.8,134.9,20.1,229.7,11.7&#10;&#9;&#9;&#9;&#9;c83-7.4,183.3-23,223.2-78.3C1897.4,808.5,1894,749.5,1853.8,710.5z M1753,662.3c45.6,36.1,74.6,92.5-24.2,153.3&#10;&#9;&#9;&#9;&#9;c-80.6,49.6-175.3,69.3-244.8,76.9l-1.3-1.2c0.4-10.5,2.9-62.7,13.1-119.6c15.2-6.6,25.5-11,27.6-11.8&#10;&#9;&#9;&#9;&#9;c7.7-2.9,18.7-19.6,16.6-31.7c-0.9-5-4.8-13.3-20.8-13.3c-3.3,0-6.9,0.2-10.7,0.6c4.3-15.1,9.2-29.7,15-42.9&#10;&#9;&#9;&#9;&#9;C1606.8,636.8,1684.2,633.4,1753,662.3z M1428.5,725.3c28.5-19.4,56.5-35.3,83.8-47.9c-4.9,12.3-9.1,25.6-12.8,39.2&#10;&#9;&#9;&#9;&#9;c-11.9,1.9-25.4,5.3-39.9,10c-0.4,0-0.8,0-1.3,0c-16.6,0.5-29.5,4.2-38.5,10.9C1422.5,733.5,1425.4,729.4,1428.5,725.3z&#10;&#9;&#9;&#9;&#9; M1407.9,768.1c0.1-0.8,0.2-1.8,0.3-2.8c0.4-2.3,1.1-5.1,2.3-8.5c0-0.1,0.1-0.2,0.1-0.2c0.3-0.7,0.5-1.5,0.8-2.1&#10;&#9;&#9;&#9;&#9;c0.3-0.6,0.5-1.2,0.8-1.8c0.3-0.5,0.6-1.1,0.8-1.6c0.3-0.4,0.5-0.9,0.8-1.3c0.2-0.4,0.5-0.8,0.7-1.2c0.3-0.4,0.6-0.8,0.8-1.1&#10;&#9;&#9;&#9;&#9;c0.3-0.3,0.5-0.7,0.8-1c0.3-0.3,0.5-0.6,0.8-0.9c0.3-0.3,0.6-0.6,0.8-0.9c0.3-0.3,0.5-0.6,0.8-0.8c0.3-0.3,0.6-0.5,0.9-0.8&#10;&#9;&#9;&#9;&#9;c0.3-0.2,0.5-0.5,0.8-0.7c0.3-0.2,0.6-0.5,0.9-0.7c0.3-0.2,0.5-0.4,0.8-0.7c0.3-0.2,0.6-0.4,0.9-0.6c0.3-0.2,0.6-0.4,0.8-0.6&#10;&#9;&#9;&#9;&#9;c0.3-0.2,0.6-0.4,0.8-0.5c0.3-0.2,0.6-0.4,0.8-0.5c0.3-0.2,0.6-0.3,0.9-0.5c0.3-0.2,0.5-0.3,0.8-0.5c0.3-0.2,0.6-0.3,0.9-0.4&#10;&#9;&#9;&#9;&#9;c0.3-0.1,0.5-0.3,0.8-0.4c0.3-0.1,0.6-0.3,0.9-0.4c0.3-0.1,0.5-0.3,0.8-0.4c0.3-0.1,0.6-0.2,0.8-0.4c0.3-0.1,0.5-0.2,0.8-0.3&#10;&#9;&#9;&#9;&#9;c0.3-0.1,0.6-0.2,0.8-0.3c0.3-0.1,0.5-0.2,0.8-0.3c0.3-0.1,0.5-0.2,0.8-0.3c0.3-0.1,0.5-0.2,0.8-0.3c0.3-0.1,0.5-0.2,0.8-0.3&#10;&#9;&#9;&#9;&#9;c0.3-0.1,0.5-0.2,0.8-0.2c0.3-0.1,0.5-0.2,0.8-0.2c0.3-0.1,0.5-0.1,0.8-0.2c0.2-0.1,0.5-0.1,0.7-0.2c0.3-0.1,0.5-0.1,0.8-0.2&#10;&#9;&#9;&#9;&#9;c0.2-0.1,0.5-0.1,0.7-0.2c0.2-0.1,0.5-0.1,0.7-0.2c0.3-0.1,0.5-0.1,0.8-0.2c0.2,0,0.5-0.1,0.7-0.1c0.2,0,0.5-0.1,0.7-0.1&#10;&#9;&#9;&#9;&#9;c0.2,0,0.5-0.1,0.7-0.1c0.2,0,0.5-0.1,0.7-0.1c0.2,0,0.5-0.1,0.7-0.1c0.2,0,0.5-0.1,0.7-0.1c0.2,0,0.5-0.1,0.7-0.1&#10;&#9;&#9;&#9;&#9;c0.2,0,0.5-0.1,0.7-0.1c0.2,0,0.5-0.1,0.7-0.1c0.2,0,0.5-0.1,0.7-0.1c0.2,0,0.4,0,0.7-0.1c0.2,0,0.5,0,0.7-0.1&#10;&#9;&#9;&#9;&#9;c0.2,0,0.5,0,0.7-0.1c0.2,0,0.4,0,0.7-0.1c0.2,0,0.4,0,0.7-0.1c0.2,0,0.4,0,0.7,0c0.2,0,0.4,0,0.7,0c0.2,0,0.4,0,0.6,0&#10;&#9;&#9;&#9;&#9;c0.2,0,0.4,0,0.6,0c0.2,0,0.4,0,0.6,0c0.2,0,0.4,0,0.6,0c0.2,0,0.4,0,0.6,0c0.2,0,0.4,0,0.6,0c0.2,0,0.4,0,0.6,0&#10;&#9;&#9;&#9;&#9;c0.1,0,0.2,0,0.2,0c0.1,0,0.3,0,0.4,0c0.2,0,0.4,0,0.7,0c0.2,0,0.4,0,0.7,0.1c0.2,0,0.5,0.1,0.7,0.1c0.3,0,0.5,0.1,0.8,0.2&#10;&#9;&#9;&#9;&#9;c0.3,0.1,0.6,0.2,0.9,0.3c1.5,1.4,2.9,3,4.2,4.6c0,0.2,0.1,0.5,0.1,0.8c0,0.2,0,0.5,0,0.7c0,0.2,0,0.4,0,0.6&#10;&#9;&#9;&#9;&#9;c0,0.2-0.1,0.4-0.1,0.6c0,0.2-0.1,0.4-0.1,0.5c0,0.2-0.1,0.3-0.1,0.5c0,0.2-0.1,0.3-0.2,0.5c-0.1,0.2-0.1,0.3-0.2,0.5&#10;&#9;&#9;&#9;&#9;c-0.1,0.2-0.1,0.3-0.2,0.5c-0.1,0.1-0.1,0.3-0.2,0.5c-0.1,0.1-0.1,0.3-0.2,0.4c-0.1,0.1-0.1,0.3-0.2,0.4&#10;&#9;&#9;&#9;&#9;c-0.1,0.1-0.1,0.3-0.2,0.4c-0.1,0.1-0.1,0.3-0.2,0.4c-0.1,0.1-0.2,0.3-0.2,0.4s-0.2,0.3-0.2,0.4c-0.1,0.1-0.2,0.3-0.2,0.4&#10;&#9;&#9;&#9;&#9;c-0.1,0.1-0.2,0.3-0.2,0.4c-0.1,0.1-0.2,0.3-0.2,0.4c-0.1,0.1-0.2,0.2-0.3,0.4c-0.1,0.1-0.2,0.2-0.3,0.4&#10;&#9;&#9;&#9;&#9;c-0.1,0.1-0.2,0.2-0.3,0.4c-0.1,0.1-0.2,0.2-0.3,0.3c-0.1,0.1-0.2,0.2-0.3,0.3c-0.1,0.1-0.2,0.2-0.3,0.4&#10;&#9;&#9;&#9;&#9;c-0.1,0.1-0.2,0.2-0.3,0.3c-0.1,0.1-0.2,0.2-0.3,0.3c-0.1,0.1-0.2,0.2-0.3,0.3c-0.1,0.1-0.2,0.2-0.3,0.3&#10;&#9;&#9;&#9;&#9;c-0.1,0.1-0.2,0.2-0.3,0.3c-0.1,0.1-0.2,0.2-0.3,0.3c-0.1,0.1-0.2,0.2-0.3,0.3c-0.1,0.1-0.2,0.2-0.3,0.3&#10;&#9;&#9;&#9;&#9;c-0.1,0.1-0.2,0.2-0.3,0.3s-0.2,0.2-0.3,0.3c-0.1,0.1-0.2,0.2-0.3,0.3c-0.1,0.1-0.2,0.2-0.3,0.3c0,0,0,0,0,0&#10;&#9;&#9;&#9;&#9;c-0.1,0.1-0.2,0.2-0.3,0.3c-0.1,0.1-0.2,0.2-0.3,0.3c-0.1,0.1-0.2,0.2-0.3,0.3c-0.1,0.1-0.2,0.2-0.3,0.3&#10;&#9;&#9;&#9;&#9;c-0.1,0.1-0.2,0.2-0.3,0.3c-0.1,0.1-0.2,0.2-0.3,0.3c-0.1,0.1-0.2,0.2-0.3,0.3c-0.1,0.1-0.2,0.2-0.3,0.3&#10;&#9;&#9;&#9;&#9;c-0.1,0.1-0.2,0.2-0.3,0.3c-0.1,0.1-0.2,0.2-0.3,0.3c-0.1,0.1-0.2,0.2-0.3,0.3c-0.1,0.1-0.2,0.2-0.3,0.3s-0.2,0.2-0.3,0.3&#10;&#9;&#9;&#9;&#9;c-0.1,0.1-0.2,0.2-0.3,0.3c-0.1,0.1-0.2,0.2-0.3,0.3c-0.1,0.1-0.2,0.2-0.3,0.3c-0.1,0.1-0.2,0.2-0.3,0.3&#10;&#9;&#9;&#9;&#9;c-0.1,0.1-0.2,0.2-0.3,0.3c-0.1,0.1-0.2,0.2-0.3,0.3c-0.1,0.1-0.2,0.2-0.3,0.2c-0.1,0.1-0.2,0.2-0.3,0.2&#10;&#9;&#9;&#9;&#9;c-0.1,0.1-0.2,0.2-0.3,0.2c-0.1,0.1-0.2,0.2-0.3,0.3c-0.1,0.1-0.2,0.2-0.3,0.2c-0.1,0.1-0.2,0.2-0.3,0.2&#10;&#9;&#9;&#9;&#9;c-0.1,0.1-0.2,0.2-0.3,0.2c-0.1,0.1-0.2,0.2-0.3,0.2c-0.1,0.1-0.2,0.2-0.3,0.2c-0.1,0.1-0.2,0.2-0.3,0.2&#10;&#9;&#9;&#9;&#9;c-0.1,0.1-0.2,0.2-0.4,0.2c-0.1,0.1-0.2,0.2-0.3,0.2c-0.1,0.1-0.2,0.2-0.3,0.2c-0.1,0.1-0.2,0.2-0.4,0.2&#10;&#9;&#9;&#9;&#9;c-0.1,0.1-0.2,0.2-0.4,0.2c-0.1,0.1-0.2,0.2-0.4,0.2c-0.1,0.1-0.2,0.1-0.4,0.2c-0.1,0.1-0.2,0.2-0.4,0.2&#10;&#9;&#9;&#9;&#9;c-0.1,0.1-0.2,0.2-0.4,0.2c-0.1,0.1-0.2,0.2-0.4,0.2c-0.1,0.1-0.2,0.1-0.4,0.2s-0.2,0.1-0.4,0.2c-0.1,0.1-0.2,0.1-0.4,0.2&#10;&#9;&#9;&#9;&#9;c-0.1,0.1-0.2,0.1-0.4,0.2c-0.1,0.1-0.2,0.1-0.4,0.2c-0.1,0.1-0.2,0.1-0.4,0.2s-0.2,0.1-0.4,0.2c-0.1,0.1-0.2,0.1-0.4,0.2&#10;&#9;&#9;&#9;&#9;c-0.1,0.1-0.3,0.1-0.4,0.2c-0.1,0.1-0.3,0.1-0.4,0.2c-0.1,0.1-0.3,0.1-0.4,0.2c-0.1,0.1-0.3,0.1-0.4,0.2&#10;&#9;&#9;&#9;&#9;c-0.1,0.1-0.3,0.1-0.4,0.2c-0.1,0.1-0.3,0.1-0.4,0.2c-0.1,0.1-0.3,0.1-0.4,0.2c-0.1,0.1-0.3,0.1-0.4,0.2&#10;&#9;&#9;&#9;&#9;c-0.1,0.1-0.3,0.1-0.4,0.2c-0.1,0.1-0.3,0.1-0.4,0.2c-0.1,0.1-0.3,0.1-0.4,0.2c-0.1,0.1-0.3,0.1-0.4,0.2&#10;&#9;&#9;&#9;&#9;c-0.1,0.1-0.3,0.1-0.4,0.2c-0.1,0.1-0.3,0.1-0.4,0.2c-0.1,0.1-0.3,0.1-0.4,0.2c-0.1,0.1-0.3,0.1-0.4,0.2&#10;&#9;&#9;&#9;&#9;c-0.1,0.1-0.3,0.1-0.4,0.2c-0.1,0.1-0.3,0.1-0.4,0.2c-0.1,0.1-0.3,0.1-0.4,0.2c-0.1,0.1-0.3,0.1-0.4,0.2&#10;&#9;&#9;&#9;&#9;c-0.2,0.1-0.3,0.2-0.5,0.2c-0.2,0.1-0.3,0.2-0.5,0.2c-0.2,0.1-0.4,0.2-0.5,0.3c-0.2,0.1-0.4,0.2-0.5,0.3&#10;&#9;&#9;&#9;&#9;c-0.2,0.1-0.5,0.2-0.7,0.3c-0.3,0.1-0.6,0.3-0.9,0.4c-0.6,0.3-1.3,0.6-1.9,0.9c-0.3,0.1-0.6,0.3-0.9,0.4&#10;&#9;&#9;&#9;&#9;c-0.2,0.1-0.4,0.2-0.7,0.3c-0.2,0.1-0.4,0.2-0.6,0.3c-0.2,0.1-0.4,0.2-0.5,0.2c-0.2,0.1-0.3,0.1-0.5,0.2&#10;&#9;&#9;&#9;&#9;c-0.2,0.1-0.3,0.1-0.5,0.2c-0.2,0.1-0.3,0.1-0.5,0.2c-0.1,0.1-0.3,0.1-0.4,0.2c-0.1,0.1-0.3,0.1-0.4,0.2&#10;&#9;&#9;&#9;&#9;c-0.1,0.1-0.3,0.1-0.4,0.2c-0.1,0.1-0.3,0.1-0.4,0.2c-0.1,0.1-0.3,0.1-0.4,0.2c-0.1,0.1-0.3,0.1-0.4,0.2&#10;&#9;&#9;&#9;&#9;c-0.1,0.1-0.3,0.1-0.4,0.2c-0.1,0.1-0.3,0.1-0.4,0.2c-0.1,0.1-0.3,0.1-0.4,0.2c-0.1,0.1-0.3,0.1-0.4,0.2&#10;&#9;&#9;&#9;&#9;c-0.1,0.1-0.3,0.1-0.4,0.2c-0.1,0.1-0.3,0.1-0.4,0.2c-0.1,0.1-0.3,0.1-0.4,0.2c-0.1,0.1-0.3,0.1-0.4,0.2&#10;&#9;&#9;&#9;&#9;c-0.1,0.1-0.3,0.1-0.4,0.2c-0.1,0.1-0.3,0.1-0.4,0.2c-0.1,0.1-0.3,0.1-0.4,0.2c-0.1,0.1-0.3,0.1-0.4,0.2&#10;&#9;&#9;&#9;&#9;c-0.1,0.1-0.3,0.1-0.4,0.2c-0.1,0-0.3,0.1-0.4,0.2c-0.1,0.1-0.3,0.1-0.4,0.2s-0.3,0.1-0.4,0.2c-0.1,0.1-0.3,0.1-0.4,0.1&#10;&#9;&#9;&#9;&#9;c-0.1,0.1-0.3,0.1-0.4,0.1c-0.1,0-0.3,0.1-0.4,0.1c-0.1,0.1-0.3,0.1-0.4,0.1c-0.1,0-0.3,0.1-0.4,0.1c-0.1,0.1-0.3,0.1-0.4,0.1&#10;&#9;&#9;&#9;&#9;c-0.2,0.1-0.3,0.1-0.4,0.1c-0.1,0-0.2,0.1-0.3,0.1c0,0-0.1,0-0.1,0c-0.1,0-0.3,0-0.5,0c-0.2,0-0.3,0-0.5-0.1&#10;&#9;&#9;&#9;&#9;c-0.2,0-0.4-0.1-0.6-0.1c-0.2-0.1-0.4-0.1-0.6-0.2c-0.2-0.1-0.4-0.2-0.6-0.4c-0.3-0.2-0.6-0.4-0.8-0.7c0,0,0,0,0-0.1&#10;&#9;&#9;&#9;&#9;c-0.5-0.7-1.1-1.9-1.3-3.9C1407.8,770.1,1407.8,769.2,1407.9,768.1z M1403.6,758.5c0.8-0.4,1.6-0.8,2.4-1.2&#10;&#9;&#9;&#9;&#9;c-3.1,9.6-3.1,16.4,0.1,20.2c3,3.6,7.5,3,7.7,3l0.2,0l0.2-0.1c1.3-0.4,32.3-10.9,47.6-26.2c10.8-10.8,10-18,8.6-21.3&#10;&#9;&#9;&#9;&#9;c-0.1-0.3-0.2-0.5-0.4-0.8c19.3-5.8,36.5-9,49.3-9c11.3,0,12.2,4.8,12.5,6.4c1.5,8.4-7.6,21-11.2,22.4c-7,2.6-95,41.3-130.8,57.1&#10;&#9;&#9;&#9;&#9;C1391.3,791.2,1395.8,774.9,1403.6,758.5z M1392.3,817.1c33.8-14.9,68.9-30.3,94.3-41.4c-10.5,61.7-12.3,116.3-12.3,117.2l0,0.5&#10;&#9;&#9;&#9;&#9;c-29.3,2.8-53.4,3.5-69.1,3.6c-1.3-1.6-2.5-3.2-3.7-4.8C1394.6,862.8,1391.5,838.6,1392.3,817.1z M1410.5,915.7&#10;&#9;&#9;&#9;&#9;c0,0-9.9-9.9-14.9-15.8c0.4,0,0.8,0.1,1.2,0.1c20.4,2.1,51.6,4.5,89.1,5.5l22.6,20.7C1453.7,922.3,1410.5,915.7,1410.5,915.7z&#10;&#9;&#9;&#9;&#9; M1867.4,832.2c-3.2,6.7-7.1,13.4-11.9,20c-0.1,0.1-0.2,0.2-0.2,0.3c-35.3,49-122.3,66.4-217.1,74.9&#10;&#9;&#9;&#9;&#9;c-37.6,3.3-81.1,2.2-119.9-0.4l1.5-1.7l-21.2-19.5c67.4,1.3,152.5-1.9,232.3-17.5c57.2-11.6,108.4-25.5,137.2-57.6&#10;&#9;&#9;&#9;&#9;c0.2-0.2,0.3-0.4,0.5-0.6C1868.3,830.6,1867.9,831.3,1867.4,832.2z" style="fill: rgb(51, 51, 51);"/>
			<path fill="#CCCCCC" d="M1867.4,832.2c-3,5.2-9.8,17-11.9,20C1860.3,845.6,1864.2,838.9,1867.4,832.2z" style="fill: rgb(51, 51, 51);"/>
		</g></g><g transform="matrix(-0.09353193640708922, -0.2762756049633026, 0.2762756049633026, -0.09353193640708922, 660.5034354384508, 403.31121945236873)"><g transform="matrix(2.890810012817383, 0, 0, 2.890810012817383, 226.74920654296886, 121.68119812011719)">
	<g transform="matrix(0.29647234082221985, 0, 0, 0.29647234082221985, 48.548712946331534, 54.76060728499549)"><g transform="matrix(0.9999999999999999, 0, 0, 0.9999999999999999, -1.4210854715202004e-14, 0)"><g transform="matrix(0.9999999999999999, 0, 0, 0.9999999999999999, -1.4210854715202004e-14, 0)">
		
		<path class="st1" d="M257,389.4H140c-8,0-14.5-6.5-14.5-14.5v-218c0-8,6.5-14.5,14.5-14.5h117c8,0,14.5,6.5,14.5,14.5v218&#10;&#9;&#9;&#9;C271.5,382.9,265,389.4,257,389.4z M140,151.4c-3,0-5.5,2.5-5.5,5.5v218c0,3,2.5,5.5,5.5,5.5h117c3,0,5.5-2.5,5.5-5.5v-218&#10;&#9;&#9;&#9;c0-3-2.5-5.5-5.5-5.5H140z" style="fill: rgb(51, 51, 51); opacity: 1;"/>
	</g><g transform="matrix(0.9999999999999999, 0, 0, 0.9999999999999999, -1.4210854715202004e-14, 0)">
		
		<path class="st1" d="M257.5,340.5H139.4V174h118.1V340.5z M148.4,331.5h100.1V183H148.4V331.5z" style="fill: rgb(51, 51, 51); opacity: 1;"/>
	</g><g transform="matrix(0.9999999999999999, 0, 0, 0.9999999999999999, -1.4210854715202004e-14, 0)">
		<path d="M 170 159.899994 H 228 V 164.899994 H 170 V 159.899994 Z" class="st0" style="fill: rgb(51, 51, 51); opacity: 1;"/>
		<path class="st1" d="M230,166.9h-62v-9h62V166.9z M172,162.9h54v-1h-54V162.9z" style="fill: rgb(51, 51, 51); opacity: 1;"/>
	</g></g><g transform="matrix(0.9999999999999999, 0, 0, 0.9999999999999999, -1.4210854715202004e-14, 0)">
		
		<g><path class="st1" d="M198,377.9c-9.9,0-18-8.1-18-18s8.1-18,18-18s18,8.1,18,18S207.9,377.9,198,377.9z M198,347.9&#10;&#9;&#9;&#9;c-6.6,0-12,5.4-12,12s5.4,12,12,12s12-5.4,12-12S204.6,347.9,198,347.9z" style="fill: rgb(51, 51, 51); opacity: 1;" transform="matrix(0.9999999999999999, 0, 0, 0.9999999999999999, -1.4210854715202004e-14, 0)"/></g>
	</g><g transform="matrix(0.9999999999999999, 0, 0, 0.9999999999999999, -1.4210854715202004e-14, 0)">
		
		<path class="st1" d="M198,369.4c-5,0-9-4-9-9s4-9,9-9s9,4,9,9S203,369.4,198,369.4z M198,354.4c-3.3,0-6,2.7-6,6s2.7,6,6,6&#10;&#9;&#9;&#9;s6-2.7,6-6S201.3,354.4,198,354.4z" style="fill: rgb(51, 51, 51); opacity: 1;"/>
	</g></g>
	
	
	
	
</g></g><g transform="matrix(1.1754520697216901, 0, 0, 1.1754520697216901, -339.59496254655005, -647.1322648834953)"><g transform="matrix(0.5235042572021484, 0, 0, 0.5235042572021484, 105.29924774169922, 0.00000456153929917491)">
		<path fill="#CCCCCC" d="M1674.5,1394.3c-10.2,0-18.5,8.3-18.5,18.5c0,10.2,8.3,18.5,18.5,18.5c10.2,0,18.5-8.3,18.5-18.5&#10;&#9;&#9;&#9;C1693,1402.6,1684.7,1394.3,1674.5,1394.3z M1674.5,1427.6c-8.2,0-14.8-6.6-14.8-14.8s6.6-14.8,14.8-14.8&#10;&#9;&#9;&#9;c8.2,0,14.8,6.6,14.8,14.8S1682.6,1427.6,1674.5,1427.6z" style="fill: rgb(51, 51, 51);"/>
		<path fill="#CCCCCC" d="M1644.8,1405.1c-4.3,0-7.7,3.5-7.7,7.7s3.5,7.7,7.7,7.7c4.3,0,7.7-3.5,7.7-7.7&#10;&#9;&#9;&#9;S1649.1,1405.1,1644.8,1405.1z" style="fill: rgb(51, 51, 51);"/>
		<path fill="#CCCCCC" d="M1765.7,1321.7c0.4-23.3-24.2-39.7-29.9-43.2l4.3-24.1c0.1-0.3,0.1-0.6,0.1-0.9c0,0,0,0,0-0.1c0,0,0,0,0,0&#10;&#9;&#9;&#9;c-0.1-2.1-1.9-4.6-20.4-6.5c-12.1-1.3-28.2-2-45.4-2c-17.1,0-33.2,0.7-45.4,2c-18.8,2-20.4,4.5-20.4,6.7c0,0.3,0,0.6,0.1,0.9&#10;&#9;&#9;&#9;l24.1,135.5c-2,1.5-6.8,5.4-10.9,11.5c-4.8,7.3-9.4,19.1-3.8,34c0.3,0.7,1,1.2,1.7,1.2h108.8c0.8,0,1.5-0.5,1.7-1.2&#10;&#9;&#9;&#9;c5.6-15,1-26.8-3.8-34c-4-6-8.7-9.9-10.8-11.5l2.9-16.4C1749.6,1357.4,1765.3,1340,1765.7,1321.7z M1762,1321.6&#10;&#9;&#9;&#9;c-0.3,16.3-14.4,32.2-42.1,47.2l0.9-5.9c5.7-2.7,34.1-17.1,36.5-39c1.4-12.7-6.3-25.3-22.8-37.6l0.7-3.9&#10;&#9;&#9;&#9;C1742,1286.9,1762.3,1301.9,1762,1321.6z M1721.5,1358.4l12.1-68c14.4,11,21.1,22.2,19.9,33.1&#10;&#9;&#9;&#9;C1751.7,1341.2,1729.9,1354.1,1721.5,1358.4z M1631.6,1250.3c11.7-1.1,26.9-1.8,42.8-1.8c15.9,0,31.1,0.6,42.8,1.8&#10;&#9;&#9;&#9;c11.9,1.2,16.6,2.5,18.4,3.2c-1.8,0.7-6.4,2.1-18.4,3.2c-11.7,1.1-26.9,1.8-42.8,1.8c-15.9,0-31.1-0.6-42.8-1.8&#10;&#9;&#9;&#9;c-11.9-1.2-16.6-2.5-18.4-3.2C1615.1,1252.8,1619.7,1251.4,1631.6,1250.3z M1613.1,1257.4c3,1,7.8,1.9,16,2.8&#10;&#9;&#9;&#9;c12.1,1.3,28.2,2,45.4,2c17.1,0,33.2-0.7,45.4-2c8.1-0.9,13-1.8,16-2.8l-3.4,19.2h0l-0.9,5l-4.7,26.5h-104.6L1613.1,1257.4z&#10;&#9;&#9;&#9; M1727.5,1433h-106.2c-3.5-10.4-2.2-20.3,3.8-29.4c4-6.1,9-9.9,10.5-11h77.6C1716.4,1394.8,1735.3,1409.8,1727.5,1433z" style="fill: rgb(51, 51, 51);"/>
		<path fill="#CCCCCC" d="M1674.4,1399.3c-7.4,0-13.3,6-13.3,13.3s6,13.3,13.3,13.3s13.3-6,13.3-13.3S1681.8,1399.3,1674.4,1399.3z&#10;&#9;&#9;&#9; M1683.2,1413.8c0.5,0,1-0.1,1.3-0.2c-0.2,1.8-0.8,3.4-1.7,4.8c-0.2-0.3-0.6-0.5-1-0.7c-1-0.5-1.9-0.6-2.1-0.2&#10;&#9;&#9;&#9;c-0.2,0.4,0.4,1.2,1.4,1.7c0.3,0.2,0.6,0.3,0.9,0.3c-1.7,1.8-3.9,3-6.5,3.2c0.1-0.3,0.2-0.8,0.2-1.3c0-1.1-0.3-2-0.8-2&#10;&#9;&#9;&#9;c-0.5,0-0.9,0.9-0.9,2c0,0.5,0.1,1,0.2,1.3c-2.8-0.1-5.3-1.3-7.1-3.2c0.4,0,0.9-0.2,1.4-0.4c1-0.5,1.6-1.2,1.4-1.7&#10;&#9;&#9;&#9;c-0.2-0.4-1.2-0.3-2.1,0.2c-0.6,0.3-1.1,0.8-1.3,1.1c-1.2-1.6-2-3.6-2.1-5.8c0.1,0.4,0.9,0.8,2,0.8c1.1,0,2-0.3,2-0.8&#10;&#9;&#9;&#9;c0-0.5-0.9-0.9-2-0.9c-1.1,0-1.9,0.3-2,0.8c0-0.1,0-0.2,0-0.3c0-5.6,4.5-10.1,10.1-10.1c3.3,0,6.2,1.6,8,4c-0.4,0-0.9,0.2-1.4,0.4&#10;&#9;&#9;&#9;c-1,0.5-1.6,1.2-1.4,1.7c0.2,0.4,1.2,0.3,2.1-0.2c0.6-0.3,1-0.7,1.3-1c0.9,1.5,1.4,3.2,1.5,5c-0.4-0.1-0.8-0.2-1.4-0.2&#10;&#9;&#9;&#9;c-1.1,0-2,0.4-2,0.9C1681.2,1413.4,1682.1,1413.8,1683.2,1413.8z" style="fill: rgb(51, 51, 51);"/>
		
			<path d="M 1668.899976 1407.599976 A 0.8 2 0 0 1 1668.099976 1409.599976 A 0.8 2 0 0 1 1667.299976 1407.599976 A 0.8 2 0 0 1 1668.099976 1405.599976 A 0.8 2 0 0 1 1668.899976 1407.599976 Z" transform="matrix(0.4608 -0.8875 0.8875 0.4608 -349.771 2239.447)" fill="#CCCCCC" style="fill: rgb(51, 51, 51);"/>
		
			<path d="M 1676.699951 1404.5 A 2 0.8 0 0 1 1674.699951 1405.3 A 2 0.8 0 0 1 1672.699951 1404.5 A 2 0.8 0 0 1 1674.699951 1403.7 A 2 0.8 0 0 1 1676.699951 1404.5 Z" transform="matrix(-1.381048e-002 -0.9999 0.9999 -1.381048e-002 293.5505 3098.4441)" fill="#CCCCCC" style="fill: rgb(51, 51, 51);"/>
		<path fill="#CCCCCC" d="M1694.9,1413.4c0,3.3,2.7,6.1,6.1,6.1h12.4c3.3,0,6.1-2.7,6.1-6.1s-2.7-6.1-6.1-6.1h-12.4&#10;&#9;&#9;&#9;C1697.6,1407.3,1694.9,1410,1694.9,1413.4z" style="fill: rgb(51, 51, 51);"/>
	</g></g><g transform="matrix(0.4962896406650544, 0.3209177851676941, -0.3209177851676941, 0.4962896406650544, 624.1306027941409, -484.02879377221626)"><g transform="matrix(1, 0, 0, 1, 0, 0)">
			<g>
				<path fill="#CCCCCB" d="M1051.7,761.9c10.4,0,18.8-8.4,18.8-18.8V605c0-4.1-1.3-7.9-3.5-11c-3.4-4.7-9-7.8-15.3-7.8h-138&#10;&#9;&#9;&#9;&#9;&#9;c-10.4,0-18.8,8.4-18.8,18.8v138c0,7.5,4.4,14,10.8,17c2.4,1.2,5.2,1.8,8,1.8H1051.7z M905.3,743.1V605c0-4.6,3.8-8.4,8.4-8.4&#10;&#9;&#9;&#9;&#9;&#9;h138c4.6,0,8.4,3.8,8.4,8.4v138c0,4.6-3.8,8.4-8.4,8.4h-138C909,751.4,905.3,747.7,905.3,743.1z" style="fill: rgb(51, 51, 51);"/>
			</g>
			<g>
				<path fill="#CCCCCB" d="M984.4,739.7c35,0,63.5-28.4,63.5-63.5c0-35-28.4-63.5-63.5-63.5c-35,0-63.5,28.4-63.5,63.5&#10;&#9;&#9;&#9;&#9;&#9;C920.9,711.3,949.3,739.7,984.4,739.7z M984.4,623.2c29.3,0,53.1,23.8,53.1,53.1c0,29.3-23.8,53.1-53.1,53.1&#10;&#9;&#9;&#9;&#9;&#9;c-29.3,0-53.1-23.8-53.1-53.1C931.3,647,955,623.2,984.4,623.2z" style="fill: rgb(51, 51, 51);"/>
			</g>
			<g>
				<path d="M 928.100012 613.5 A 5.9 5.9 0 0 1 922.200012 619.4 A 5.9 5.9 0 0 1 916.300012 613.5 A 5.9 5.9 0 0 1 922.200012 607.6 A 5.9 5.9 0 0 1 928.100012 613.5 Z" fill="#CCCCCB" style="fill: rgb(51, 51, 51);"/>
			</g>
			<g>
				<path d="M 1053.700049 613.5 A 5.9 5.9 0 0 1 1047.800049 619.4 A 5.9 5.9 0 0 1 1041.900049 613.5 A 5.9 5.9 0 0 1 1047.800049 607.6 A 5.9 5.9 0 0 1 1053.700049 613.5 Z" fill="#CCCCCB" style="fill: rgb(51, 51, 51);"/>
			</g>
			<g>
				<path d="M 928.100012 735.299988 A 5.9 5.9 0 0 1 922.200012 741.199988 A 5.9 5.9 0 0 1 916.300012 735.299988 A 5.9 5.9 0 0 1 922.200012 729.399988 A 5.9 5.9 0 0 1 928.100012 735.299988 Z" fill="#CCCCCB" style="fill: rgb(51, 51, 51);"/>
			</g>
			<g>
				<path d="M 1053.700049 735.299988 A 5.9 5.9 0 0 1 1047.800049 741.199988 A 5.9 5.9 0 0 1 1041.900049 735.299988 A 5.9 5.9 0 0 1 1047.800049 729.399988 A 5.9 5.9 0 0 1 1053.700049 735.299988 Z" fill="#CCCCCB" style="fill: rgb(51, 51, 51);"/>
			</g>
			<g>
				<path d="M 981.5 625.200012 H 987.2 V 638.200012 H 981.5 V 625.200012 Z" fill="#CCCCCB" style="fill: rgb(51, 51, 51);"/>
			</g>
			<g>
				<path d="M 981.5 714.400024 H 987.2 V 727.400024 H 981.5 V 714.400024 Z" fill="#CCCCCB" style="fill: rgb(51, 51, 51);"/>
			</g>
			<g>
				
					<path d="M 1006.099976 631.5 H 1008.699975 V 644.5 H 1006.099976 V 631.5 Z" transform="matrix(0.8572 0.5151 -0.5151 0.8572 472.5274 -427.6984)" fill="#CCCCCB" style="fill: rgb(51, 51, 51);"/>
			</g>
			<g>
				
					<path d="M 960.099976 708 H 962.699975 V 721 H 960.099976 V 708 Z" transform="matrix(-0.8572 -0.515 0.515 -0.8572 1417.4539 1822.1499)" fill="#CCCCCB" style="fill: rgb(51, 51, 51);"/>
			</g>
			<g>
				
					<path d="M 1022.099976 648.200012 H 1024.699975 V 661.200012 H 1022.099976 V 648.200012 Z" transform="matrix(0.4843 0.8749 -0.8749 0.4843 1100.5834 -557.7489)" fill="#CCCCCB" style="fill: rgb(51, 51, 51);"/>
			</g>
			<g>
				
					<path d="M 944 691.400024 H 946.6 V 704.400024 H 944 V 691.400024 Z" transform="matrix(-0.4842 -0.8749 0.8749 -0.4842 792.4923 1862.9468)" fill="#CCCCCB" style="fill: rgb(51, 51, 51);"/>
			</g>
			<g>
				
					<path d="M 954.900024 636.799988 H 967.900024 V 639.399988 H 954.900024 V 636.799988 Z" transform="matrix(0.5151 0.8572 -0.8572 0.5151 1013.1185 -514.64)" fill="#CCCCCB" style="fill: rgb(51, 51, 51);"/>
			</g>
			<g>
				
					<path d="M 1000.799988 713.200012 H 1013.799988 V 715.800012 H 1000.799988 V 713.200012 Z" transform="matrix(-0.5151 -0.8571 0.8571 -0.5151 913.7394 1946.0067)" fill="#CCCCCB" style="fill: rgb(51, 51, 51);"/>
			</g>
			<g>
				
					<path d="M 938.799988 653.400024 H 951.799988 V 656.000024 H 938.799988 V 653.400024 Z" transform="matrix(0.8749 0.4842 -0.4842 0.8749 435.2535 -375.8892)" fill="#CCCCCB" style="fill: rgb(51, 51, 51);"/>
			</g>
			<g>
				
					<path d="M 1016.900024 696.599976 H 1029.900024 V 699.199975 H 1016.900024 V 696.599976 Z" transform="matrix(0.8749 0.4842 -0.4842 0.8749 465.9397 -408.2885)" fill="#CCCCCB" style="fill: rgb(51, 51, 51);"/>
			</g>
			<g>
				<path d="M 1022.5 673.400024 H 1035.5 V 679.100024 H 1022.5 V 673.400024 Z" fill="#CCCCCB" style="fill: rgb(51, 51, 51);"/>
			</g>
			<g>
				<path d="M 933.200012 673.400024 H 946.200012 V 679.100024 H 933.200012 V 673.400024 Z" fill="#CCCCCB" style="fill: rgb(51, 51, 51);"/>
			</g>
			<path fill="#CCCCCB" d="M984.4,648.4c-15.4,0-27.9,12.5-27.9,27.9c0,15.4,12.5,27.9,27.9,27.9s27.9-12.5,27.9-27.9&#10;&#9;&#9;&#9;&#9;C1012.3,660.9,999.8,648.4,984.4,648.4z M985.9,679.5c-0.2,0.5-0.5,0.9-1,1.2s-1,0.5-1.5,0.5l0,0l0,0c-0.4,0-0.7-0.1-1.1-0.2&#10;&#9;&#9;&#9;&#9;c-1-0.4-1.6-1.4-1.6-2.5c0-0.5,0.1-0.9,0.3-1.3c0.3-0.6,0.9-1.1,1.7-1.3l0.7-21.9v0v0l0.4,11l0.4,11c0.1,0,0.3,0.1,0.4,0.2&#10;&#9;&#9;&#9;&#9;c0.3,0.1,0.5,0.3,0.7,0.5c0.1,0.1,0.2,0.2,0.3,0.3l16.8,1.6L985.9,679.5z" style="fill: rgb(51, 51, 51);"/>
		</g></g><g transform="matrix(2.8837652206420903, -2.3428962230682377, 2.3428962230682377, 2.8837652206420903, -2777.691914382251, 1195.220861933008)"><g transform="matrix(0.5235042572021484, 0, 0, 0.5235042572021484, 327.8882751464845, -329.1619567871094)">
			<path fill="#CCCCCC" d="M1264.3,1489.9c0,0.4,0.3,0.7,0.7,0.7h5.9c0.4,0,0.7-0.3,0.7-0.7v-4.8h9.1c1.5,0,2.7-1.2,2.7-2.7v-48.7&#10;&#9;&#9;&#9;&#9;c0-1.5-1.2-2.7-2.7-2.7h-63.8l10.2-23.2c0.1,0,0.3,0,0.4,0c2.1,0,3.7-1.7,3.7-3.7c0-2.1-1.7-3.7-3.7-3.7c-2.1,0-3.7,1.7-3.7,3.7&#10;&#9;&#9;&#9;&#9;c0,1.1,0.5,2.1,1.3,2.8l-10,22.9l-10-22.9c0.8-0.7,1.3-1.7,1.3-2.8c0-2.1-1.7-3.7-3.7-3.7c-2.1,0-3.7,1.7-3.7,3.7&#10;&#9;&#9;&#9;&#9;c0,2.1,1.7,3.7,3.7,3.7c0.1,0,0.3,0,0.4,0l10.2,23.2h-20.6c-1.5,0-2.7,1.2-2.7,2.7v48.7c0,1.5,1.2,2.7,2.7,2.7h9.1v4.8&#10;&#9;&#9;&#9;&#9;c0,0.4,0.3,0.7,0.7,0.7h5.9c0.4,0,0.7-0.3,0.7-0.7v-4.8h55.5V1489.9z M1224.8,1404c0-1.5,1.2-2.7,2.7-2.7c1.5,0,2.7,1.2,2.7,2.7&#10;&#9;&#9;&#9;&#9;s-1.2,2.7-2.7,2.7C1226,1406.6,1224.8,1405.4,1224.8,1404z M1199.7,1404c0-1.5,1.2-2.7,2.7-2.7c1.5,0,2.7,1.2,2.7,2.7&#10;&#9;&#9;&#9;&#9;s-1.2,2.7-2.7,2.7C1200.9,1406.6,1199.7,1405.4,1199.7,1404z M1263.1,1478.9h-63.5c-1.2,0-2.2-1-2.2-2.2v-37.5&#10;&#9;&#9;&#9;&#9;c0-1.2,1-2.2,2.2-2.2h63.5c1.2,0,2.2,1,2.2,2.2v37.5C1265.4,1477.9,1264.4,1478.9,1263.1,1478.9z M1274.8,1443c-1.6,0-3-1.3-3-3&#10;&#9;&#9;&#9;&#9;c0-1.6,1.3-3,3-3c1.6,0,3,1.3,3,3C1277.8,1441.6,1276.5,1443,1274.8,1443z M1274.8,1452c-1.3,0-2.3-1-2.3-2.3&#10;&#9;&#9;&#9;&#9;c0-1.3,1-2.3,2.3-2.3c1.3,0,2.3,1,2.3,2.3C1277.1,1450.9,1276.1,1452,1274.8,1452z M1274.8,1456.8c1.1,0,2,0.9,2,2&#10;&#9;&#9;&#9;&#9;c0,1.1-0.9,2-2,2c-1.1,0-2-0.9-2-2C1272.8,1457.7,1273.7,1456.8,1274.8,1456.8z M1269.7,1469.1h10.3c0.7,0,1.3,0.3,1.3,0.6&#10;&#9;&#9;&#9;&#9;s-0.6,0.6-1.3,0.6h-10.3c-0.7,0-1.3-0.3-1.3-0.6S1269,1469.1,1269.7,1469.1z M1269.7,1472.1h10.3c0.7,0,1.3,0.3,1.3,0.6&#10;&#9;&#9;&#9;&#9;c0,0.3-0.6,0.6-1.3,0.6h-10.3c-0.7,0-1.3-0.3-1.3-0.6C1268.4,1472.4,1269,1472.1,1269.7,1472.1z M1269.7,1475.2h10.3&#10;&#9;&#9;&#9;&#9;c0.7,0,1.3,0.3,1.3,0.6c0,0.3-0.6,0.6-1.3,0.6h-10.3c-0.7,0-1.3-0.3-1.3-0.6C1268.4,1475.4,1269,1475.2,1269.7,1475.2z&#10;&#9;&#9;&#9;&#9; M1269.7,1478.2h10.3c0.7,0,1.3,0.3,1.3,0.6c0,0.3-0.6,0.6-1.3,0.6h-10.3c-0.7,0-1.3-0.3-1.3-0.6&#10;&#9;&#9;&#9;&#9;C1268.4,1478.5,1269,1478.2,1269.7,1478.2z" style="fill: rgb(51, 51, 51);"/>
		</g></g><g transform="matrix(4.570827484130859, 0, 0, 4.570827484130859, -1426.2676524995368, -2329.472900390625)"><g transform="matrix(0.5235042572021484, 0, 0, 0.5235042572021484, 105.29924774169933, 0.000004561539782343971)">
			<path d="M 899.2000122070312 1059.5999755859375 L 886.4000244140625 1064.5999755859375 L 886.4000244140625 1068 L 886.4000244140625 1071.5 L 899.2000122070312 1076.5 L 906.2000122070312 1076.5 L 906.2000122070312 1068 L 906.2000122070312 1059.5999755859375 Z" fill="#CCCCCC" style="fill: rgb(51, 51, 51);"/>
			<path d="M 874.2999877929688 1055.9000244140625 L 871.2999877929688 1049.4000244140625 L 853.5999755859375 1049.4000244140625 L 853.5999755859375 1045 L 876 1045 L 884.4000244140625 1057.300048828125 Z" fill="#CCCCCC" style="fill: rgb(51, 51, 51);"/>
			<path d="M 840.400024 1060.099976 H 846.900024 V 1066.799975 H 840.400024 V 1060.099976 Z" fill="#CCCCCC" style="fill: rgb(51, 51, 51);"/>
			<path fill="#CCCCCC" d="M846.1,1054.9v26.3H889v-26.3H846.1z M857.3,1078h-7.4v-3.7h7.4V1078z" style="fill: rgb(51, 51, 51);"/>
			<path d="M 838.099976 1058.800049 H 840.399976 V 1068.000049 H 838.099976 V 1058.800049 Z" fill="#CCCCCC" style="fill: rgb(51, 51, 51);"/>
		</g></g><g transform="matrix(-0.22065846621990207, -0.5470898747444153, 0.5470898747444153, -0.22065846621990207, 1005.4109908911868, 1164.323886312451)"><g transform="matrix(1, 0, 0, 1, 0, 0)">
			<path fill="#CCCCCC" d="M1607.1,1020.1c0-0.6-0.1-1.3-0.2-2.1l0-0.1l0-0.1c-0.3-1.4-0.9-2.6-1.7-3.5c-1.3-1.4-2.8-1.8-3.4-2.1&#10;&#9;&#9;&#9;&#9;c-0.8-0.3-0.8-0.3-1.1-0.7l-0.2-0.2l-0.2-0.2c0,0,0,0-0.1-0.1c-0.2-0.2-0.5-0.8-0.5-1.7c0-0.3,0-0.6,0.1-0.9l0.5-2.9l-2.9-0.5&#10;&#9;&#9;&#9;&#9;c-0.7-0.1-1.3-0.1-1.8-0.1c-0.5,0-0.9,0-1.3,0c0-1.5,0.1-3,0.1-4.5c0-6.8-0.3-13.8-0.3-19.4c0-2.4,0.1-4.5,0.2-6.2l0-0.6&#10;&#9;&#9;&#9;&#9;l-0.2-0.6c-0.3-0.8-0.9-1.6-1.5-2c-1.1-0.8-2.1-0.8-2.8-0.9c-0.5,0-0.9-0.1-1.3-0.1c0-3,0-6,0-9v-2.9l-2.9-0.1&#10;&#9;&#9;&#9;&#9;c-112.3-2.9-227.7-7.3-328.7-9.4l-2.9-0.1l-0.1,2.9c-0.1,3.6-0.2,7-0.2,10.5c0,17.3,1.4,32.9,1.4,49.9c0,1.9,0,3.9-0.1,5.8&#10;&#9;&#9;&#9;&#9;c-1.3,2.2-1.7,4.6-1.7,6.7c0,3.1,0.6,5.9,0.6,8.9c0,0.8,0,1.7-0.1,2.5l-0.1,0.7l0.2,0.6c0.4,1.1,1,2.2,2,2.9&#10;&#9;&#9;&#9;&#9;c1,0.7,2.2,0.9,2.9,0.9c0.2,0,0.4,0,0.6,0c0,0,0,0.1,0,0.1c0,0.7,0.1,1.3,0.2,2l2.3,167.9l0.6,0.8c1.4,1.7,2.2,5.3,4.3,8.7&#10;&#9;&#9;&#9;&#9;l1.2,4.8l21-1.8l-0.1,2.5l21.9-1.8l0-2.7c5.5,0.5,9.9,0.7,14,0.7c10.3,0,17.7-1.4,31.9-2.5c20.9-1.7,57.4-2.7,78.6-4.4&#10;&#9;&#9;&#9;&#9;c26.7-2.2,57.3-3.8,84.5-6.1c13.9-1.2,32.8-2.2,47.6-3.9l0,1.5l21.8-2.7v-2.6c0.1,0,0.2-0.1,0.3-0.1c0.5-0.2,1.3-0.4,2.2-0.8&#10;&#9;&#9;&#9;&#9;c0.8-0.3,1.9-0.9,2.7-2.1l12.7-0.9v-144.8l-0.7-4.9l-0.8-0.1c-0.4,0-0.8,0-1-0.2l0.1-2.3l2.4-0.2v-25.2h-0.1&#10;&#9;&#9;&#9;&#9;C1607.1,1020.3,1607.1,1020.2,1607.1,1020.1z M1261.9,1026.3c-0.5,0-1.6,0-2.5,0c-0.6,0-1,0-1.3,0c0-1.2,0-2.3,0-3.5&#10;&#9;&#9;&#9;&#9;c0.5,0,1,0,1.6,0c0.7,0,1.3,0,2,0C1261.8,1024.7,1261.9,1024.8,1261.9,1026.3z M1264.3,974.7c0-1.3,0-2.8,0-4.2&#10;&#9;&#9;&#9;&#9;c9.3-0.4,18.7-0.6,28.3-0.6c10.7,0,21.5,0.2,32.1,0.7c86.7,3.9,176.8,4.6,259.1,8.1c0,0.7,0,1.5,0,2.3c0,4.9-0.3,11.6-0.3,17.7&#10;&#9;&#9;&#9;&#9;c0,0.7,0,1.4,0,2.1l0,1.4v0.1v2.6h-10.1l-0.1,0c-0.5,0.1-1.1,0.1-1.7,0.1c-0.6,0-1.2,0-1.8-0.1l-0.1,0h-0.1v-1.2h3.3l-3.9-4.7&#10;&#9;&#9;&#9;&#9;c0-0.1-0.2-0.2-0.4-0.5l-0.9-0.9h-1.2c-7,0-14.1,0-21.1,0h-0.1l0,0c-0.9,0-2,0.3-2.8,0.9c-1.3,0.9-1.9,2.2-2.1,3.2&#10;&#9;&#9;&#9;&#9;c-0.1,0.3-0.1,0.7-0.2,1h-10.7v-5.2h-16.2v4.2h2.1l0,0.1h-2.1v0.9h-8.9v-4.9h-1.3l0-0.2h-3.5c-3.9,0-7.8,0-11.7,0h-0.1l-0.1,0&#10;&#9;&#9;&#9;&#9;c-0.4,0-0.7,0.1-1.1,0.2h-4.5v3.4h-8.6l-0.2-0.1l-0.7,0c-4,0.1-8,0.1-12,0.1c-18.7,0-37.1-0.9-52.4-1.3l0,0h-17&#10;&#9;&#9;&#9;&#9;c0-0.3,0-0.6-0.1-0.9l-0.3-2.6h-2.6c-5.4,0-10.8,0-16.3,0c-0.3,0-0.5,0-0.8,0c-1.7,0-3.6,0.7-4.6,2.1c-0.3,0.5-0.6,1-0.8,1.4&#10;&#9;&#9;&#9;&#9;h-1.4c-1-0.1-2-0.1-3-0.1c-1.4,0-2.9,0.1-4.3,0.1h-6.1c-0.1-0.2-0.1-0.5-0.2-0.8c-0.2-0.6-0.5-1.3-1.3-2.1&#10;&#9;&#9;&#9;&#9;c-0.8-0.7-1.9-1.1-2.9-1.1c-0.6,0-1.2,0.1-1.8,0.3c-0.5-0.2-1.1-0.2-1.7-0.2c-1.3-0.1-2.9,0.8-3.6,1.8c-0.6,0.9-0.8,1.6-0.9,2.1&#10;&#9;&#9;&#9;&#9;c-4.4,0-8.8,0-13.2,0c0-0.3-0.1-0.7-0.3-1.2c-0.2-0.5-0.6-1.2-1.3-1.7c-0.7-0.5-1.5-0.7-2.2-0.7c-0.1,0-0.3,0-0.4,0&#10;&#9;&#9;&#9;&#9;c-1.2-0.1-2.5-0.2-3.8-0.2c-1.9,0-3.8,0.1-5.7,1c-1.2,0.5-2.3,1.5-3,2.7c-1.6,0-3.2,0-4.8,0c-3.4,0-6.8,0-10.1,0&#10;&#9;&#9;&#9;&#9;c0-0.3-0.1-0.7-0.3-1.2c-0.2-0.5-0.6-1.2-1.3-1.7c-0.6-0.4-1.4-0.6-2-0.7c-0.7-0.2-1.4-0.4-2.2-0.4c-1.3-0.1-2.9,0.8-3.6,1.8&#10;&#9;&#9;&#9;&#9;c-0.7,1-0.8,1.8-0.9,2.4c-1.6,0.2-3.4,0.3-5.2,0.3c-1.9,0-3.9-0.1-5.8-0.1c-2.6,0-5.1,0.1-7.4,1c0-1,0-2,0-3&#10;&#9;&#9;&#9;&#9;C1265,990.7,1264.3,984.1,1264.3,974.7z M1408.2,1010.7v-2.4C1408.3,1009,1408.3,1009.9,1408.2,1010.7z M1266.6,1014.8v-7.2v-0.6&#10;&#9;&#9;&#9;&#9;v-2.5h10.5c0.1-0.1,0.3-0.1,0.4,0h1.7h0.3c0.4-0.4,1.4-0.7,3.1-0.5c0.1,0.2,0.1,0.4,0,0.5h3.9c0.4-0.3,0.9-0.4,1.5-0.4&#10;&#9;&#9;&#9;&#9;c0.1,0,0.3,0,0.4,0c0.4,0,0.8,0,1.2-0.1c0,0.2-0.1,0.3-0.2,0.5h14.4h4.6h1.8v0.3h3.2h3h3.6h0.5h8.8h13.3h4.3h24.4h14.1h19.2v1&#10;&#9;&#9;&#9;&#9;v0.6v5.9h3.6v0c0.5,0,1.1,0,1.6,0h2.9v0.1c22.3,0.5,47.1-1.6,67.4,0.9v-3.7h12.4v0h3.9h1.9h1.7v0h1.8h43.6v0h18.5h22.1v1.1v2.1&#10;&#9;&#9;&#9;&#9;v2.5h-28.8h-8.8H1529h-1.5h-1.8h-2.1h-40.2v0.3c-48.7-1.5-105.8,0.8-154.6-0.3h-2.4h-18.1v-0.7v-6.7v-0.4h-1.1h0h-2.4h-1v0.2&#10;&#9;&#9;&#9;&#9;c-0.8,0.1-1.7,0-2.6-0.2h-9.5c-0.6,0.2-1.2,0.2-2.2,0h-7.2c-0.2,0-0.4,0-0.5,0h-2.8v3c0,0.6,0,1.2,0,1.7v2.6H1266.6z&#10;&#9;&#9;&#9;&#9; M1467.4,1069.1v2.1l-42.3,1.5v27.1l10-0.3v6.3l-10,0.3v1l-6.8,0.2v0.1l-1.3,0v-36.7v-1.3v-0.8l6.8-0.2l18.2-0.6l10.3-0.4l0.6,0&#10;&#9;&#9;&#9;&#9;l31.1-1.1v2.1L1467.4,1069.1z M1477,1072.2v21.4l-3.7,0.1v-16.8L1477,1072.2z M1439.1,1102.8v-3.2v-0.1l0.1,0l7.6-0.3l0.8,0&#10;&#9;&#9;&#9;&#9;l7.5-0.3l2.3-0.1l6.5-0.2v3.3L1439.1,1102.8z M1462.6,1122v3.6l-1.1,0v-3.6L1462.6,1122z M1459.2,1123.5v2.2l-1.2,0v-2.2&#10;&#9;&#9;&#9;&#9;L1459.2,1123.5z M1455.7,1123.5v2.5l-1.2,0v-1.6v-1l0.6,0L1455.7,1123.5z M1442.8,1124.3v2.6l-24,0.8v-0.5v-2.1l1.1,0l1.1,0&#10;&#9;&#9;&#9;&#9;l6.9-0.2l1.3,0l7.4-0.3l1,0l2.3-0.1L1442.8,1124.3z M1463.9,1122.2l1.1,0v4.5l-1.1,0V1122.2z M1440.8,1098.2l-5.5,0.2l-5.5,0.2&#10;&#9;&#9;&#9;&#9;v-2.4l2.1-0.1l1.4,0l14.8-0.5l0.2,0l1.4-0.1l4-0.1l1.5,0l12.4-0.4l5.2-0.2v2.4L1440.8,1098.2z M1445.8,1085l11-0.4v8.2l-12.9,0.5&#10;&#9;&#9;&#9;&#9;v-7.2v-1.1L1445.8,1085z M1443.9,1080.5v-1.6v-3.2l9.8-0.3l4.8-0.2v4.8L1443.9,1080.5z M1423.8,1067l-8.8,0.3v1.2v25.3v2.9v10.5&#10;&#9;&#9;&#9;&#9;l-2.9,0.1v-35.1c0-0.2,0-0.4,0-0.6v-5.4l0.3,0v-0.1l72.7-2.5v1.3L1423.8,1067z M1412.1,1169v-1.9v-25.9v-0.6v-0.1l0.1,0l0.3,0&#10;&#9;&#9;&#9;&#9;v-0.1v-0.5l72.6-2.5v1.9l-71,2.5v25.3v1.8v1l5.6-0.2l3.1-0.1l19.7-0.7l11.8-0.4l11.4-0.4l17.2-0.6l3.1-0.1v2.1l-71.9,2.5v0.5&#10;&#9;&#9;&#9;&#9;l-2.1,0.1V1169z M1482.9,1143.7v14.6l-1.4,0v-14.6L1482.9,1143.7z M1406.3,1049.3v-0.7v-0.8v-0.7l85.3-0.4v1.6v0.3v0.3&#10;&#9;&#9;&#9;&#9;L1406.3,1049.3z M1376.9,1038.1l-37.9,0.5v-1.7l37.9-0.5l119.5-1.7l12.6-0.2l0.2,0l25.2-0.4v1.7l-1.5,0L1376.9,1038.1z&#10;&#9;&#9;&#9;&#9; M1338.7,1024.4l0-0.4l0-1l197.4-2.8l0.1,1.7L1338.7,1024.4z M1604.2,1195.3l-10.7,0.8c-1.4,0.1-1.9,0.2-2.9,0.3&#10;&#9;&#9;&#9;&#9;c-0.6,0-1.4,0.1-2.7,0.2l-0.8,0.1l-0.7,0h0v0.3v2.5v0.5v2.1l-15.8,2l0.1-2l0.1-3.6l0-0.5l0-0.3c-0.2,0-0.3,0-0.6,0&#10;&#9;&#9;&#9;&#9;c-1.5,0.1-1.7,0-3.4,0.1c-82,5.2-162.5,12-244.1,17.6c-2.7,0-5.5,0-8.2,0c0,0.6-0.2,0.9-0.5,1.1c-1.3,0.7-4.8-0.7-5.5,0.7l-0.2,0&#10;&#9;&#9;&#9;&#9;l0,5l-15.9,1.3l0.1-2.5l0.2,0l-0.1-1.9c0,0,0-0.8,0-1.1c0-0.1,0-0.1,0-0.1l-0.1-1l-18.9,1.4v-21.8c0,0,0,0,0,0c0,0,0.1,0,0.1,0&#10;&#9;&#9;&#9;&#9;l-1.5-64.1l-1.2-80c-0.2,0-0.4,0-0.6,0c-1.7-0.2-2.6-1.5,0-1.4c0.2,0,0.4,0,0.6,0.1c2,0,3.9,0,5.9,0c4.3,0,8.6,0,12.9,0&#10;&#9;&#9;&#9;&#9;c12.3,0,24.5,0,36.8,0c5.3,0,10.7,0,16,0c17.4-0.2,26.4-0.5,34.4-0.5c7.1,0,13.5,0.1,24.2,0.5l0,1.7c-0.1,3.7-0.1,7-0.1,10.1&#10;&#9;&#9;&#9;&#9;c0,18.8,0.9,28.8,1.3,44.6l0,2.8c0.3,0.7,0.2,1.2,0,1.6l0.1,13.3l0.6,61.5c0,0.2,0.1,0.4,0.2,0.6c0.1,0.4,0.2,0.8,0.3,1.1&#10;&#9;&#9;&#9;&#9;c5.2-0.4,10.4-0.8,15.6-1.1c25.5-1.8,51.3-3.3,77.2-4.7c1.4-39.2,1.2-85,1.2-119.7c0-4.5,0-8.9,0-13c17.3,0.3,34.2,0.1,50.9-0.2&#10;&#9;&#9;&#9;&#9;c12.9-0.2,25.8-0.5,38.7-0.8c3.2-0.1,6.4-0.1,9.6-0.2c1,0,2,0,2.9-0.1c1.9,0,2.4,0.3,3.2,0.6c1.1,0.9,1.2,2.1,1.2,2.1l0.3,2.2&#10;&#9;&#9;&#9;&#9;V1195.3z" style="fill: rgb(51, 51, 51);"/>
			<path fill="#CCCCCC" d="M1596,1062.4c-0.1,0-0.1,0-0.2,0c-2.9,0.1-5.2,2.7-5.2,5.9c0,2,0.9,3.7,2.2,4.8c0.9,0.7,2,1.2,3.1,1.2&#10;&#9;&#9;&#9;&#9;c2.9,0,5.2-2.5,5.3-5.6c0-0.1,0-0.2,0-0.3c0-0.1,0-0.2,0-0.3C1601.1,1064.9,1598.8,1062.4,1596,1062.4z" style="fill: rgb(51, 51, 51);"/>
			<path fill="#CCCCCC" d="M1510.5,1075.5C1510.5,1075.5,1510.5,1075.5,1510.5,1075.5c3.1,0,5.6-2.8,5.6-6.3c0-3.5-2.5-6.3-5.6-6.3&#10;&#9;&#9;&#9;&#9;c-0.5,0-1.1,0.1-1.5,0.3c-2.3,0.8-4,3.2-4,6C1504.9,1072.7,1507.4,1075.5,1510.5,1075.5z" style="fill: rgb(51, 51, 51);"/>
			<path fill="#CCCCCC" d="M1596,1161.8c-0.2,0-0.3-0.1-0.5-0.1c-2.8,0-5.1,2.7-5.1,5.9c0,1.3,0.4,2.5,1,3.5&#10;&#9;&#9;&#9;&#9;c0.2,0.3,0.4,0.5,0.6,0.8c0.4,0.4,0.9,0.8,1.4,1.1c0.7,0.4,1.4,0.6,2.1,0.6c2.8,0,5.1-2.7,5.1-5.9&#10;&#9;&#9;&#9;&#9;C1600.6,1164.6,1598.6,1162.1,1596,1161.8z" style="fill: rgb(51, 51, 51);"/>
			<path d="M 1395.800025 1070.900024 A 6.4 5.8 0 0 1 1389.400024 1076.700025 A 6.4 5.8 0 0 1 1383.000024 1070.900024 A 6.4 5.8 0 0 1 1389.400024 1065.100024 A 6.4 5.8 0 0 1 1395.800025 1070.900024 Z" fill="#CCCCCC" style="fill: rgb(51, 51, 51);"/>
			<path d="M 1292.800049 1072.800049 A 6.5 6.5 0 0 1 1286.300049 1079.300049 A 6.5 6.5 0 0 1 1279.800049 1072.800049 A 6.5 6.5 0 0 1 1286.300049 1066.300049 A 6.5 6.5 0 0 1 1292.800049 1072.800049 Z" fill="#CCCCCC" style="fill: rgb(51, 51, 51);"/>
			<path fill="#CCCCCC" d="M1421.7,1095.6c-1.3,0-2.4,1.1-2.4,2.4c0,1.3,1.1,2.3,2.4,2.2c1.3,0,2.4-1.1,2.4-2.4&#10;&#9;&#9;&#9;&#9;C1424.1,1096.6,1423.1,1095.6,1421.7,1095.6z" style="fill: rgb(51, 51, 51);"/>
			<path fill="#CCCCCC" d="M1587,1080.9c-6.2-6.6-14.4-11.3-25-13.5c-32.4-2.1-45.8,14.9-54.8,36.2c-0.1,0.3-0.1,0.7-0.2,1&#10;&#9;&#9;&#9;&#9;c0,0-2.3,13.6-1.3,26.2c0,0,0,0,0,0c4.1,28.2,27.1,46.2,55.2,41.1c9.9-1.8,19.1-7.5,26.2-15.8c10.1-11.9,16-29.2,13.7-48.8&#10;&#9;&#9;&#9;&#9;C1597.9,1096.8,1593.5,1087.8,1587,1080.9z M1516.2,1135.5c0-0.1,0-0.1,0-0.2c0,0.1,0.1,0.1,0.1,0.2&#10;&#9;&#9;&#9;&#9;C1516.3,1135.4,1516.2,1135.4,1516.2,1135.5z M1549.3,1134.1c-2.9,0-5.5-1-7.6-2.7c-0.3-0.2-0.6-0.5-0.8-0.7&#10;&#9;&#9;&#9;&#9;c-0.4-0.4-0.8-0.9-1.2-1.3c-1.7-2.2-2.8-5.1-2.8-8.2c0-7.2,5.6-13,12.4-13c2.5,0,4.7,0.8,6.7,2c3.5,2.3,5.8,6.3,5.8,10.9&#10;&#9;&#9;&#9;&#9;C1561.8,1128.2,1556.2,1134.1,1549.3,1134.1z" style="fill: rgb(51, 51, 51);"/>
			<path fill="#CCCCCC" d="M1545,1173.6c-1-0.1-2.1-0.3-3.3-0.5c-1.1-0.2-2.3-0.4-3.4-0.7c-0.4-0.1-0.7-0.2-1.1-0.3&#10;&#9;&#9;&#9;&#9;c-0.9-0.2-1.8-0.5-2.7-0.8c-0.6-0.2-1.1-0.4-1.6-0.6c-0.1,0-0.2-0.1-0.3-0.1c-2.3-0.9-4.6-2-6.8-3.4c0,0-0.1-0.1-0.1-0.1&#10;&#9;&#9;&#9;&#9;c-0.2-0.2-0.5-0.3-0.7-0.5c-0.6-0.4-1.2-0.8-1.7-1.3c-0.4-0.3-0.7-0.6-1.1-0.9l0.1,0.2c-0.9-1.1-2.1-2-3-2.8&#10;&#9;&#9;&#9;&#9;c-6.1-5.8-12.4-14.9-13.6-24.5c-0.3-1.3-0.6-2.7-0.9-4.2c-0.2-0.7-0.4-2.2-0.7-3.8c-0.4-2.4-0.8-5.1-0.7-5.7c0-2.7,0-5.5,0-8.2&#10;&#9;&#9;&#9;&#9;c0.1-0.2,0.1-0.3,0.2-0.4c0.6-11.8,4-20.5,9-27.6c0,0,0.1-0.1,0.1-0.1c0,0,0,0,0,0c1.4-2.5,1.8-3.6,4.2-6.6&#10;&#9;&#9;&#9;&#9;c0.4-0.5,0.8-1.1,1.2-1.6c1.3-1.7,2.5-3.5,4.5-5c0.6-0.5,1-0.9,1.4-1.2c4.8-4.1,1.3-1.1-4.1,1.4c-2.8,3.3-5.3,6.3-7.5,9.3&#10;&#9;&#9;&#9;&#9;c-4.7,6.3-8.2,13-10,23.9c-0.7,4.4-0.7,8.1-0.6,14.5c0.3,4.3,0.7,7.6,1.2,10.1c0.3,1.3,0.5,2.5,0.7,3.4&#10;&#9;&#9;&#9;&#9;c2.8,14.8,9.6,23.7,19.6,31.3c0,0,4.8,3.9,13,6.1c0,0,0,0,0,0c1.9,0.5,4,0.9,6.2,1.2c0.3,0,0.6,0.1,0.9,0.1&#10;&#9;&#9;&#9;&#9;c3.4,0.4,7.3,0.4,11.4-0.2C1554.7,1174.1,1550.6,1174.3,1545,1173.6z" style="fill: rgb(51, 51, 51);"/>
			<path fill="#CCCCCC" d="M1376.9,1083.3c-7.3-6.5-16.6-11.1-28-13.5c-2.4-0.5-5-0.9-7.6-1.3c-7.2-0.1-9.6,0-17,1.2&#10;&#9;&#9;&#9;&#9;c-5.5,0.9-7.4,1.8-12,3.3c-2.7,1.3-5.1,2.6-7.4,4.1c-23.1,14.2-28.8,34.4-28.8,51.1c-0.3,13.8,3.3,25,5.1,28.1&#10;&#9;&#9;&#9;&#9;c0.1-0.3,17.5,34.5,54.6,31.7c3.3-0.1,6.7-0.4,10.2-0.9c0.4,0,0.7-0.1,1.2-0.2c1-0.2,2.1-0.4,3.4-0.7c0.4-0.1,0.8-0.2,1.3-0.3&#10;&#9;&#9;&#9;&#9;c0.8-0.2,1.5-0.4,2.4-0.7c0.4-0.1,0.8-0.3,1.2-0.4c0.3-0.1,0.6-0.2,0.8-0.3c0.4-0.1,0.8-0.3,1.3-0.5c0.4-0.1,0.8-0.3,1.3-0.5&#10;&#9;&#9;&#9;&#9;c0.4-0.1,0.8-0.3,1.2-0.4c2.5-0.9,5.3-2,7.9-3.4c2.9-1.5,5.6-3.3,7.5-5.5c0.6-0.5,1.1-1,1.6-1.5c6.3-6,7.6-7.7,11.5-14.8&#10;&#9;&#9;&#9;&#9;c5.7-10.3,11.2-22,8.1-40.1C1392.8,1103.5,1386.5,1091.8,1376.9,1083.3z M1346.6,1128.6c-0.1,7.3-6.1,13.2-13.4,13.2&#10;&#9;&#9;&#9;&#9;c-7.4,0-13.5-6-13.5-13.3c0-0.6,0.1-1.2,0.1-1.8c0.9-6.5,6.5-11.5,13.3-11.5c7.4,0,13.5,6,13.5,13.3&#10;&#9;&#9;&#9;&#9;C1346.6,1128.5,1346.6,1128.5,1346.6,1128.6z" style="fill: rgb(51, 51, 51);"/>
			<path fill="#CCCCCC" d="M1400.1,1062.7l0,2.6C1400.1,1064.5,1400.1,1063.6,1400.1,1062.7c0.1-3.8,0-7.4-0.1-10.6L1400.1,1062.7z" style="fill: rgb(51, 51, 51);"/>
			<path d="M 1404.699951 1015 H 1408.299951 V 1015.3 H 1404.699951 V 1015 Z" fill="#CCCCCC" style="fill: rgb(51, 51, 51);"/>
		</g></g><g transform="matrix(0.6722515225410461, 0, 0, 0.6722515225410461, -777.837024591725, -196.3658083537631)"><g transform="matrix(1, 0, 0, 1, -611.9296875, -701.5897216796875)">
			<path fill="#CCCCCC" d="M1932.5,1279v-47.6c0-6-5.9-10.9-13.3-10.9h-59.2l15-10.4l-0.3-0.5l32.2-22.5l0,0.1&#10;&#9;&#9;&#9;&#9;c0.5,0.7,1.5,0.9,2.2,0.4l4-2.8c0.7-0.5,0.9-1.5,0.4-2.2l-1.4-2c-0.5-0.7-1.5-0.9-2.2-0.4l-4,2.8c-0.7,0.5-0.9,1.5-0.4,2.2l0,0.1&#10;&#9;&#9;&#9;&#9;l-32.2,22.5l-0.3-0.5l-19.1,13.3h-67.3c-7.3,0-13.3,4.9-13.3,10.9v47.6c-1,0.1-1.9,0.9-1.9,1.7v4.6c0,0.9,0.8,1.6,1.9,1.8v5.4&#10;&#9;&#9;&#9;&#9;h3.5v-5.4h0.9v63.7c0,3.6,2.9,6.6,6.6,6.6h137.3c3.6,0,6.6-2.9,6.6-6.6v-63.7h0.9v5.4h3.5v-5.4c1-0.1,1.9-0.8,1.9-1.8v-4.6&#10;&#9;&#9;&#9;&#9;C1934.4,1279.9,1933.6,1279.1,1932.5,1279z M1777.7,1256.9v22.1h-0.9v-47.6c0-4.4,4.4-8,9.7-8h63.2l-7.8,5.4l-0.4-0.6l-31.8,22.2&#10;&#9;&#9;&#9;&#9;h-25.5C1780.7,1250.3,1777.7,1253.3,1777.7,1256.9z M1822.9,1347h-7c-3.9-0.5-7.6-1.7-10.8-3.5h28.6&#10;&#9;&#9;&#9;&#9;C1830.5,1345.3,1826.8,1346.5,1822.9,1347z M1840.4,1338.2h-41.9c-1-1.1-2-2.3-2.9-3.6h47.6&#10;&#9;&#9;&#9;&#9;C1842.4,1335.9,1841.4,1337.1,1840.4,1338.2z M1845.9,1329.7H1793c-0.5-1.1-0.8-2.3-1.1-3.6h55.2&#10;&#9;&#9;&#9;&#9;C1846.7,1327.3,1846.3,1328.5,1845.9,1329.7z M1847.8,1321.5h-56.7c0-0.6-0.1-1.3-0.1-1.9c0-0.6,0-1.1,0.1-1.7h56.7&#10;&#9;&#9;&#9;&#9;c0,0.6,0.1,1.1,0.1,1.7C1847.9,1320.2,1847.8,1320.9,1847.8,1321.5z M1840.2,1300.8c1.1,1.1,2,2.3,2.9,3.5h-47.4&#10;&#9;&#9;&#9;&#9;c0.9-1.3,1.8-2.4,2.9-3.5H1840.2z M1805,1295.8c3.1-1.8,6.7-3,10.4-3.6h8c3.8,0.5,7.3,1.7,10.4,3.6H1805z M1845.8,1309.4&#10;&#9;&#9;&#9;&#9;c0.5,1.1,0.9,2.3,1.2,3.6h-55.1c0.3-1.2,0.7-2.4,1.2-3.6H1845.8z M1888.7,1347h-7c-3.9-0.5-7.6-1.7-10.8-3.5h28.6&#10;&#9;&#9;&#9;&#9;C1896.2,1345.3,1892.6,1346.5,1888.7,1347z M1906.1,1338.2h-41.9c-1-1.1-2-2.3-2.9-3.6h47.6&#10;&#9;&#9;&#9;&#9;C1908.1,1335.9,1907.2,1337.1,1906.1,1338.2z M1911.6,1329.7h-52.9c-0.5-1.1-0.8-2.3-1.1-3.6h55.2&#10;&#9;&#9;&#9;&#9;C1912.5,1327.3,1912.1,1328.5,1911.6,1329.7z M1913.5,1321.5h-56.7c0-0.6-0.1-1.3-0.1-1.9c0-0.6,0.1-1.1,0.1-1.7h56.7&#10;&#9;&#9;&#9;&#9;c0,0.6,0.1,1.1,0.1,1.7C1913.6,1320.2,1913.5,1320.9,1913.5,1321.5z M1906,1300.8c1.1,1.1,2,2.3,2.9,3.5h-47.4&#10;&#9;&#9;&#9;&#9;c0.9-1.3,1.8-2.4,2.9-3.5H1906z M1870.7,1295.8c3.1-1.8,6.7-3,10.4-3.6h8c3.8,0.5,7.3,1.7,10.4,3.6H1870.7z M1911.6,1309.4&#10;&#9;&#9;&#9;&#9;c0.5,1.1,0.9,2.3,1.2,3.6h-55.1c0.3-1.2,0.7-2.4,1.2-3.6H1911.6z M1914.6,1280.1h-123.4v-9.9h96.4v8.2h2.3v-8.2h24.7V1280.1z&#10;&#9;&#9;&#9;&#9; M1914.6,1267.6h-24.7v-7.5h-2.3v7.5h-96.4v-9.7h123.4V1267.6z M1929,1279h-0.9v-22.1c0-3.6-3-6.6-6.6-6.6h-102.9l25.8-18&#10;&#9;&#9;&#9;&#9;l-0.4-0.6l11.9-8.3h63.4c5.4,0,9.7,3.6,9.7,8V1279z" style="fill: rgb(51, 51, 51);"/>
		</g></g><g transform="matrix(0.22196020114261344, -0.26004609715515437, 0.26004609715515437, 0.22196020114261344, 559.5955405575867, 143.034900943595)"><g transform="matrix(2.890810012817383, 0, 0, 2.890810012817383, 226.74920654296886, 121.68119812011719)">
	<g transform="matrix(0.29647234082221985, 0, 0, 0.29647234082221985, 48.548712946331534, 54.76060728499549)"><g transform="matrix(0.9999999999999999, 0, 0, 0.9999999999999999, -1.4210854715202004e-14, 0)"><g transform="matrix(0.9999999999999999, 0, 0, 0.9999999999999999, -1.4210854715202004e-14, 0)">
		
		<path class="st1" d="M257,389.4H140c-8,0-14.5-6.5-14.5-14.5v-218c0-8,6.5-14.5,14.5-14.5h117c8,0,14.5,6.5,14.5,14.5v218&#10;&#9;&#9;&#9;C271.5,382.9,265,389.4,257,389.4z M140,151.4c-3,0-5.5,2.5-5.5,5.5v218c0,3,2.5,5.5,5.5,5.5h117c3,0,5.5-2.5,5.5-5.5v-218&#10;&#9;&#9;&#9;c0-3-2.5-5.5-5.5-5.5H140z" style="fill: rgb(51, 51, 51); opacity: 1;"/>
	</g><g transform="matrix(0.9999999999999999, 0, 0, 0.9999999999999999, -1.4210854715202004e-14, 0)">
		
		<path class="st1" d="M257.5,340.5H139.4V174h118.1V340.5z M148.4,331.5h100.1V183H148.4V331.5z" style="fill: rgb(51, 51, 51); opacity: 1;"/>
	</g><g transform="matrix(0.9999999999999999, 0, 0, 0.9999999999999999, -1.4210854715202004e-14, 0)">
		<path d="M 170 159.899994 H 228 V 164.899994 H 170 V 159.899994 Z" class="st0" style="fill: rgb(51, 51, 51); opacity: 1;"/>
		<path class="st1" d="M230,166.9h-62v-9h62V166.9z M172,162.9h54v-1h-54V162.9z" style="fill: rgb(51, 51, 51); opacity: 1;"/>
	</g></g><g transform="matrix(0.9999999999999999, 0, 0, 0.9999999999999999, -1.4210854715202004e-14, 0)">
		
		<g><path class="st1" d="M198,377.9c-9.9,0-18-8.1-18-18s8.1-18,18-18s18,8.1,18,18S207.9,377.9,198,377.9z M198,347.9&#10;&#9;&#9;&#9;c-6.6,0-12,5.4-12,12s5.4,12,12,12s12-5.4,12-12S204.6,347.9,198,347.9z" style="fill: rgb(51, 51, 51); opacity: 1;" transform="matrix(0.9999999999999999, 0, 0, 0.9999999999999999, -1.4210854715202004e-14, 0)"/></g>
	</g><g transform="matrix(0.9999999999999999, 0, 0, 0.9999999999999999, -1.4210854715202004e-14, 0)">
		
		<path class="st1" d="M198,369.4c-5,0-9-4-9-9s4-9,9-9s9,4,9,9S203,369.4,198,369.4z M198,354.4c-3.3,0-6,2.7-6,6s2.7,6,6,6&#10;&#9;&#9;&#9;s6-2.7,6-6S201.3,354.4,198,354.4z" style="fill: rgb(51, 51, 51); opacity: 1;"/>
	</g></g>
	
	
	
	
</g></g><g transform="matrix(-0.09734178334474562, 0.15367692708969116, -0.15367692708969116, -0.09734178334474562, 1255.2060088392896, 158.5338955287334)"><g transform="matrix(1, 0, 0, 1, 0, 0)">
			<path fill="#CCCCCC" d="M1413.2,1279.6c-2-9.4-8-38.1-28.3-68.8c-24.2-36.6-59.8-63.1-106-78.6c-0.7-0.2-1.5-0.2-2.1,0.1&#10;&#9;&#9;&#9;&#9;c-25.1-8.8-36.9-9.2-37.5-9.2c-0.2,0-0.3,0-0.5,0c-0.5,0.1-4.7,0.7-11.9,2.7c-0.2,0-0.3-0.1-0.4-0.1c-0.5-0.1-0.9-0.1-1.4,0&#10;&#9;&#9;&#9;&#9;c-1.3,0.3-23.3,6.1-44.3,14.8c-12.4-3.2-30.4-8.3-43.7-14.2c-22.6-10-2.5-20.1-6.3-65.2c-3.9-46.2-81.5-38.9-81.5-38.9l-1.3,11.3&#10;&#9;&#9;&#9;&#9;c75.2-3.8,76.9,31.4,63.9,71.5c-8.9,27.7,28.6,39.5,50.9,44c-1.7,0.9-3.3,1.9-4.8,2.8c-18,11.3-28.8,25-33.5,30.9&#10;&#9;&#9;&#9;&#9;c-0.8,1-1.6,2.1-2,2.5c-0.4,0.3-0.8,0.7-1,1.1c-4,4.3-5.7,7-6.2,8.7c-0.3,0.3-0.7,0.6-1,1c-3,3.7-3.4,10.8-2.2,15.5&#10;&#9;&#9;&#9;&#9;c0.2,0.8,0.7,1.4,1.3,1.8c0.1,0.1,5.1,3.2,12.4,8c7.4,7.2,16.7,16,20.9,19.6c7.5,6.5,76.7,73.2,94.1,86.5&#10;&#9;&#9;&#9;&#9;c20.2,15.5,80.5,51.5,129.5,30c14.5-4.2,25.7-11.4,33.3-21.7C1418.6,1315.6,1415.3,1289.8,1413.2,1279.6z M1295.1,1145.9&#10;&#9;&#9;&#9;&#9;c40.4,17.1,52.9,45.8,51.4,59.8c-2.5,23.6-34.7,45.5-59.7,48c-2.8,0.3-5.7,0.4-8.6,0.4c0,0,0,0,0,0c-31.6,0-65.1-15.8-79.4-22.6&#10;&#9;&#9;&#9;&#9;c-1.5-0.7-2.9-1.4-4-1.9c-11.3-5.2-61.3-28.8-72.9-34.3c0.7-1.1,1.8-2.5,3.4-4.1c6.9,2,30.5,8.9,39.2,9.2c0.5,0,1,0,1.5,0&#10;&#9;&#9;&#9;&#9;c13.3,0,24.9-7.1,34.3-12.8l0.9-0.5c3-1.8,7.1-4.3,12-7.1c2.1-1.2,4.3-2.5,6.5-3.8c4.2,0.6,11,1.1,16.5-1.3&#10;&#9;&#9;&#9;&#9;c8.6-3.8,15.6-9.1,15.1-12.4c-0.3-1.6-1.8-2.9-3.3-3.8c2.8-1.9,9.1-6.4,12.6-10.3c2.2-2.5,2.3-4.9,1.9-6.5&#10;&#9;&#9;&#9;&#9;c-1-4.4-6.2-7.6-10.5-9.5c-1.9-0.8-5.6-1.9-9.7-3C1248.4,1130.2,1265.7,1133.4,1295.1,1145.9z M1225.9,1131.8&#10;&#9;&#9;&#9;&#9;c5.9,1.3,19.8,4.5,23.4,6.1c4.5,2,6.8,4.1,7.1,5.3c0,0.1,0.1,0.5-0.6,1.3c-4,4.5-12.7,10.2-12.8,10.2c0,0-0.1,0-0.1,0.1&#10;&#9;&#9;&#9;&#9;c-2.8,2-6.2,4.1-9.8,6.4c-4-2.2-10.9-5.8-17.5-7.1c0.7-1.2,0.6-2.3-0.5-3.3c-4.8-4.3-14.5-3.8-17.7-3.8c-3.2,0-13.4,3-18.2,6.2&#10;&#9;&#9;&#9;&#9;c-1.8,1.2-3.8,3.2-1.6,5.4c0,0,14.4,5.7,20.9,4.6c2.6-0.4,6.6-1.8,10.2-3.6c0.4,0.9,1.2,1.6,2.1,1.8c0.1,0,7.4,1.6,11.4,3.1&#10;&#9;&#9;&#9;&#9;c1,0.4,2.1,0.9,3.3,1.6c-5.2,3.1-10.5,6.2-15.3,9c-4.9,2.9-9.1,5.3-12.1,7.2l-0.9,0.5c-9.5,5.8-20.3,12.4-32.4,11.9&#10;&#9;&#9;&#9;&#9;c-7-0.3-26.3-5.7-35.1-8.2c4.9-6.2,14.8-18.6,31.7-29.2C1182.2,1143.9,1220.3,1133.3,1225.9,1131.8z M1349.7,1355.2&#10;&#9;&#9;&#9;&#9;c-1.7,0.1-3.4,0.2-5.1,0.2c0,0,0,0,0,0c-48.8,0-113.1-57.5-147.7-88.4c-7-6.3-12.5-11.2-16.6-14.5&#10;&#9;&#9;&#9;&#9;c-22.3-17.9-56.1-39.5-62.6-43.6c-0.5-3.1-0.1-6.3,0.7-8.2c3.2,1.4,9.3,4.1,16.6,7.4c19.5,9.2,48.9,23.1,57.2,26.9&#10;&#9;&#9;&#9;&#9;c1.1,0.5,2.4,1.1,3.9,1.8c14.6,6.9,48.9,23.2,81.9,23.2c0,0,0,0,0,0c3.1,0,6.2-0.1,9.2-0.4c13.5-1.3,29-7.9,41.6-17.6&#10;&#9;&#9;&#9;&#9;c13.8-10.7,22.1-23.3,23.4-35.7c1.1-10.3-3.4-23.4-13.6-35.9c35.2,27.1,58.8,64.8,68.4,110.4c2,9.4,5.1,33.2-8.5,51.4&#10;&#9;&#9;&#9;&#9;C1389,1345.4,1372.5,1353.2,1349.7,1355.2z" style="fill: rgb(51, 51, 51);"/>
		</g></g></svg>