<svg xmlns="http://www.w3.org/2000/svg" enable-background="new 0 0 128 128" viewBox="0 0 128 128"><path fill="none" d="M28.5 93.3c-.9 1.6-.9 3.6.1 5.1l.1.2c0 0 0 0 0 0 .7 1.1 1.7 1.9 3 2.5 1 .5 2.1.8 3.3.7l21.4.2V86.8l-24.2 0L28.5 93.3zM23.9 91.2c.1-.1.1-.3.2-.4l4.4-7.8c0 0 0 0 0 0l8.2-14.3c.3-.6.9-1 1.5-1.2.7-.2 1.3-.1 1.9.2l.6.3-4.9-13.4-14 2.6.6.3c.6.3 1 .9 1.2 1.5.2.7.1 1.3-.2 1.9l-6.7 11.7c-1.4 2.5-1.3 5.5.3 7.9L23.9 91.2zM52.8 18.3L52.8 18.3c-.1 0-.1 0-.1 0-1.3 0-2.6.4-3.8 1.1-1 .6-1.8 1.4-2.4 2.3L35.7 38.3l12.6 8.1 12.3-18.7L57.2 21C56.3 19.4 54.6 18.3 52.8 18.3zM88.5 62.4l11.1 19.4h7.5c1.8 0 3.5-1 4.4-2.7l0-.1c0 0 0 0 0 0 .6-1.2.8-2.5.7-3.9-.1-1.2-.4-2.2-1-3.2l-9.8-17.1L88.5 62.4zM73.4 43.3c-.2.6-.7 1.2-1.3 1.5l-.6.3 13.8 3.2 5.5-13.1-.6.3c-.6.3-1.3.4-1.9.2-.6-.2-1.2-.7-1.5-1.3l-6.1-12.1c-1.3-2.5-3.9-4.1-6.8-4.1l-12.4 0c.1.1.1.3.2.4l4.1 8 7.5 14.7C73.6 42 73.6 42.7 73.4 43.3zM81.6 86.9c-1.4 0-2.5-1.1-2.5-2.5v-.7l-9.2 10.8 9.2 10.8v-.7c0-.7.3-1.3.7-1.8.5-.5 1.1-.7 1.8-.7 0 0 0 0 0 0l13.5 0c2.8 0 5.4-1.6 6.7-4.2l5.6-11c-.1 0-.3 0-.4 0H81.6z"/><path d="M61.7 46.3c.1 1.1.9 1.9 1.9 2.2l22.7 5.3c.2 0 .4.1.6.1 1 0 1.9-.6 2.3-1.6l9-21.5c.4-1 .2-2.1-.6-2.8-.8-.7-1.9-.9-2.9-.4l-4.5 2.3-5-9.8c-2.2-4.3-6.6-6.8-11.3-6.8l-21 0c0 0-.1 0-.1 0h0 0c0 0-.1 0-.1 0-2.2 0-4.3.7-6.3 1.9-1.7 1-3 2.3-4.1 3.9L30 37.6c-.4.6-.5 1.3-.4 1.9.1.7.5 1.2 1.1 1.6L47.7 52c1.2.7 2.7.4 3.5-.7l12-18.4 4.4 8.5-4.5 2.3C62.1 44.2 61.6 45.2 61.7 46.3zM48.3 46.4l-12.6-8.1 10.8-16.5c.6-1 1.4-1.7 2.4-2.3 1.2-.7 2.5-1.1 3.8-1.1 0 0 0 0 .1 0h0c1.8 0 3.6 1.1 4.4 2.7l3.4 6.6L48.3 46.4zM65.8 26.7l-4.1-8c-.1-.1-.1-.3-.2-.4l12.4 0c2.9 0 5.5 1.5 6.8 4.1l6.1 12.1c.3.6.8 1.1 1.5 1.3.6.2 1.3.2 1.9-.2l.6-.3-5.5 13.1-13.8-3.2.6-.3c.6-.3 1.1-.8 1.3-1.5.2-.6.2-1.3-.2-1.9L65.8 26.7zM103 48.9c-.7-.2-1.4-.1-1.9.3L83.7 59.2c-1.2.7-1.6 2.2-.9 3.5l10.9 19.1h-9.6v-5.1c0-1.1-.7-2-1.7-2.4-1-.4-2.1-.1-2.8.7l-15 17.8c-.8.9-.8 2.3 0 3.3l15 17.7c.5.6 1.2.9 1.9.9.3 0 .6-.1.9-.2 1-.4 1.7-1.3 1.7-2.4v-5.1l11 0c4.8 0 9.1-2.7 11.2-7l9.6-18.7c0-.1.1-.1.1-.2l0 0c0 0 0 0 0-.1 0 0 0 0 0 0 1-2 1.4-4.2 1.2-6.5-.1-1.9-.7-3.8-1.6-5.4l-11-19.3C104.2 49.5 103.7 49 103 48.9zM101.8 97.9c-1.3 2.6-3.9 4.2-6.7 4.2l-13.5 0c0 0 0 0 0 0-.7 0-1.3.3-1.8.7-.5.5-.7 1.1-.7 1.8v.7l-9.2-10.8 9.2-10.8v.7c0 1.4 1.1 2.5 2.5 2.5H107c.1 0 .3 0 .4 0L101.8 97.9zM112.2 75.1c.1 1.4-.1 2.7-.7 3.9 0 0 0 0 0 0l0 .1c-.8 1.6-2.6 2.7-4.4 2.7h-7.5L88.5 62.4l13-7.6 9.8 17.1C111.8 72.9 112.1 74 112.2 75.1zM12.9 83.6l11.4 17.5c.1.1.1.2.2.3 1.2 1.8 2.9 3.3 5 4.3 1.7.8 3.6 1.2 5.5 1.3l23.9.2c0 0 0 0 0 0 .7 0 1.3-.3 1.8-.7.5-.5.7-1.1.7-1.8V84.3c0-.7-.3-1.3-.7-1.8-.5-.5-1.1-.7-1.8-.7h0l-23.8 0 4.8-8.3 4.4 2.5c.9.5 2.1.4 2.9-.3.8-.7 1.1-1.8.7-2.8l-8-21.9c-.4-1.2-1.6-1.8-2.8-1.6l-22.9 4.3c-1 .2-1.9 1-2 2.1-.2 1 .3 2.1 1.2 2.6l4.4 2.5-5.5 9.5C10 74.6 10.2 79.6 12.9 83.6zM56.4 86.8V102L35 101.9c-1.2 0-2.2-.2-3.3-.7-1.3-.6-2.3-1.5-3-2.5 0 0 0 0 0 0l-.1-.2c-1-1.5-1-3.5-.1-5.1l3.7-6.5L56.4 86.8zM16.8 72.9l6.7-11.7c.3-.6.4-1.3.2-1.9-.2-.7-.6-1.2-1.2-1.5L22 57.4l14-2.6 4.9 13.4-.6-.3c-.6-.3-1.3-.4-1.9-.2-.6.2-1.2.6-1.5 1.2l-8.2 14.3c0 0 0 0 0 0l-4.4 7.8c-.1.1-.1.3-.2.4l-6.8-10.4C15.5 78.4 15.4 75.4 16.8 72.9z"/></svg>