<?xml version="1.0" encoding="utf-8"?>
<svg id="master-artboard" viewBox="0 0 274.8451843261719 236.03079223632812" version="1.1" xmlns="http://www.w3.org/2000/svg" x="0px" y="0px" style="enable-background:new 0 0 336 235.2;" width="274.8451843261719px" height="236.03079223632812px"><rect id="ee-background" x="0" y="0" width="274.8451843261719" height="236.03079223632812" style="fill: white; fill-opacity: 0; pointer-events: none;"/><defs><style id="ee-google-fonts">@import url(https://fonts.googleapis.com/css?family=Audiowide:400);</style></defs>





















































































































































<g transform="matrix(0.9155498147010804, 0, 0, 0.9155498147010804, -698.3723556372803, -361.9807635507075)"><g transform="matrix(1, 0, 0, 1, 0, 2.842170943040401e-14)"><path class="st2" d="M962.5,559.9c-10.8,0-19.6,8.8-19.6,19.6c0,10.8,8.8,19.6,19.6,19.6c10.8,0,19.6-8.8,19.6-19.6&#10;&#9;&#9;C982.1,568.7,973.3,559.9,962.5,559.9z" style="fill: rgb(51, 51, 51); opacity: 1;" transform="matrix(1, 0, 0, 1, 0, 5.684341886080802e-14)"/><path class="st2" d="M1036.5,574c0.3,1.1,0.4,2.3,0.5,3.4c10.9,3.3,21.6,4.6,23.3,2.6c0.7-0.8,0.6-2.2-0.4-3.6&#10;&#9;&#9;C1057.7,573.1,1050.4,569.2,1036.5,574z" style="fill: rgb(51, 51, 51); opacity: 1;" transform="matrix(1, 0, 0, 1, 0, 5.684341886080802e-14)"/><path class="st4" d="M1039.7,546.1c1.3,0,2.5,0.2,3.7,0.5c1.9-42.7,2.7-89.9,0.6-96.8c-5.7-2-42.1-4.6-89.6-5.4&#10;&#9;&#9;c-54.9-0.9-84.4,1.2-89.6,3.7v98H1039.7z M1032.6,460.7c0-1.6,1.3-2.9,2.9-2.9s2.9,1.3,2.9,2.9v73.9c0,1.6-1.3,2.9-2.9,2.9&#10;&#9;&#9;s-2.9-1.3-2.9-2.9V460.7z M1012.5,460.7c0-1.6,1.3-2.9,2.9-2.9c1.6,0,2.9,1.3,2.9,2.9v73.9c0,1.6-1.3,2.9-2.9,2.9&#10;&#9;&#9;c-1.6,0-2.9-1.3-2.9-2.9V460.7z M992.4,460.7c0-1.6,1.3-2.9,2.9-2.9s2.9,1.3,2.9,2.9v73.9c0,1.6-1.3,2.9-2.9,2.9s-2.9-1.3-2.9-2.9&#10;&#9;&#9;V460.7z M972.3,460.7c0-1.6,1.3-2.9,2.9-2.9s2.9,1.3,2.9,2.9v73.9c0,1.6-1.3,2.9-2.9,2.9s-2.9-1.3-2.9-2.9V460.7z M952.2,460.7&#10;&#9;&#9;c0-1.6,1.3-2.9,2.9-2.9c1.6,0,2.9,1.3,2.9,2.9v73.9c0,1.6-1.3,2.9-2.9,2.9c-1.6,0-2.9-1.3-2.9-2.9V460.7z M932.1,460.7&#10;&#9;&#9;c0-1.6,1.3-2.9,2.9-2.9s2.9,1.3,2.9,2.9v73.9c0,1.6-1.3,2.9-2.9,2.9s-2.9-1.3-2.9-2.9V460.7z M912.1,460.7c0-1.6,1.3-2.9,2.9-2.9&#10;&#9;&#9;c1.6,0,2.9,1.3,2.9,2.9v73.9c0,1.6-1.3,2.9-2.9,2.9c-1.6,0-2.9-1.3-2.9-2.9V460.7z M892,460.7c0-1.6,1.3-2.9,2.9-2.9&#10;&#9;&#9;s2.9,1.3,2.9,2.9v73.9c0,1.6-1.3,2.9-2.9,2.9s-2.9-1.3-2.9-2.9V460.7z M871.9,460.7c0-1.6,1.3-2.9,2.9-2.9s2.9,1.3,2.9,2.9v73.9&#10;&#9;&#9;c0,1.6-1.3,2.9-2.9,2.9s-2.9-1.3-2.9-2.9V460.7z" style="fill: rgb(51, 51, 51); opacity: 1;" transform="matrix(1, 0, 0, 1, 0, 5.684341886080802e-14)"/><path class="st3" d="M822.4,554.2c13,0,23.7,9.8,25.2,22.5h9.7c-1.3-32.4-4.1-82.3-6.4-89.5c-5.1-3.6-47.1-2.2-51.9,1.8&#10;&#9;&#9;c-4.9,4.4-18.9,27.4-21.2,34.6c-1.8,5.7-1.6,31.9-1.3,43.2c5.1,0.3,12.4,1.1,22.9,2.3C803.4,560.3,812.2,554.2,822.4,554.2z&#10;&#9;&#9; M789.9,519.9c0.5-4.2,8.3-21.2,15.3-25.1c0.8-0.4,3.3-1.8,17.8-1.8c13.3,0,20.9,0.8,22.4,2.3c2.9,2.9,1.4,20.8,1.1,23.1&#10;&#9;&#9;c-0.7,5.1-1.7,7.6-3.6,8.7c-0.7,0.4-1.8,1.1-10.1,1.1c0,0,0,0,0,0c-0.4,0-37.6-0.4-42.1-5.5C790.1,521.8,789.8,520.9,789.9,519.9z" style="fill: rgb(51, 51, 51); opacity: 1;" transform="matrix(1, 0, 0, 1, 0, 5.684341886080802e-14)"/><path class="st2" d="M822.4,559.9c-10.8,0-19.6,8.8-19.6,19.6c0,10.8,8.8,19.6,19.6,19.6s19.6-8.8,19.6-19.6&#10;&#9;&#9;C842,568.7,833.2,559.9,822.4,559.9z" style="fill: rgb(51, 51, 51); opacity: 1;" transform="matrix(1, 0, 0, 1, 0, 5.684341886080802e-14)"/><path class="st2" d="M797.5,574.5c-13-1.6-27.2-2.8-30.2-2.5c-0.7,0.9-1.9,4.1-1.4,6.4c0.2,1.2,0.8,1.5,1.4,1.7&#10;&#9;&#9;c4.1,1.3,20.2,0,29.4-1.1c0.1,0,0.2,0,0.4,0C797.1,577.5,797.2,576,797.5,574.5z" style="fill: rgb(51, 51, 51); opacity: 1;" transform="matrix(1, 0, 0, 1, 0, 5.684341886080802e-14)"/><path class="st2" d="M1011.8,559.9c-10.8,0-19.6,8.8-19.6,19.6c0,10.8,8.8,19.6,19.6,19.6c10.8,0,19.6-8.8,19.6-19.6&#10;&#9;&#9;C1031.4,568.7,1022.6,559.9,1011.8,559.9z" style="fill: rgb(51, 51, 51); opacity: 1;" transform="matrix(1, 0, 0, 1, 0, 5.684341886080802e-14)"/><path class="st5" d="M832.9,522.3c4.4,0,6.3-0.2,7-0.3c1.6-3.3,1.9-17.9,1.2-22.4c-2.7-0.4-9.8-0.9-18.1-0.9&#10;&#9;&#9;c-10.1,0-14.3,0.7-15.1,1.1c-4.2,2.3-10.4,14.3-12,19.3C801.1,520.7,819.2,522.3,832.9,522.3C832.9,522.3,832.9,522.3,832.9,522.3z&#10;&#9;&#9;" style="fill: rgb(51, 51, 51); opacity: 1;" transform="matrix(1, 0, 0, 1, 0, 5.684341886080802e-14)"/><path class="st4" d="M1044.2,553.6c-1.1-1.2-2.5-1.8-4.4-1.8h-176c-0.5,0.4-1.1,0.7-1.8,0.7c0.6,11.9,1,21.3,1.1,24&#10;&#9;&#9;c0,0,0,0.1,0,0.1h74.3c1.4-12.6,12.2-22.5,25.2-22.5c11.9,0,22,8.3,24.6,19.5c2.7-11.1,12.7-19.5,24.6-19.5&#10;&#9;&#9;c10,0,18.7,5.9,22.8,14.4c4.3-1.5,8.2-2.3,11.7-2.5C1046.6,563.4,1046.9,556.8,1044.2,553.6z" style="fill: rgb(51, 51, 51); opacity: 1;" transform="matrix(1, 0, 0, 1, 0, 5.684341886080802e-14)"/></g></g></svg>