<?xml version="1.0" encoding="utf-8"?>
<svg id="master-artboard" viewBox="0 0 274.8451843261719 236.03079223632812" version="1.1" xmlns="http://www.w3.org/2000/svg" x="0px" y="0px" style="enable-background:new 0 0 336 235.2;" width="274.8451843261719px" height="236.03079223632812px"><rect id="ee-background" x="0" y="0" width="274.8451843261719" height="236.03079223632812" style="fill: white; fill-opacity: 0; pointer-events: none;"/><defs><style id="ee-google-fonts">@import url(https://fonts.googleapis.com/css?family=Audiowide:400);</style></defs>





















































































































































<g transform="matrix(0.5765297412872314, 0, 0, 0.5765297412872314, -455.81182861328125, 90.95771833276291)"><g transform="matrix(1, 0, 0, 1, 941.4285888671875, -401.4285888671875)"><g transform="matrix(1, 0, 0, 1, 0, 0)">
				
					<path d="M 257.209015 499.397003 H 277.026014 V 565.038002 H 257.209015 V 499.397003 Z" fill="#D1D3D4" stroke="#000000" stroke-width="8" stroke-linecap="round" stroke-linejoin="round"/>
				<path d="M 130.81199645996094 544.6320190429688 L 99.77100372314453 532.2160034179688 L 130.81199645996094 519.7999877929688 L 257.2090148925781 519.7999877929688 L 257.2090148925781 544.6320190429688 Z" fill="#D1D3D4" stroke="#000000" stroke-width="8" stroke-linecap="round" stroke-linejoin="round"/>
			</g><path d="M 99.771004 426.044006 H 119.588003 V 485.393005 H 99.771004 V 426.044006 Z" fill="#D1D3D4" stroke="#000000" stroke-width="8" stroke-linecap="round" stroke-linejoin="round" transform="matrix(1, 0, 0, 1, 0, 0)"/><path d="M 198.79800415039062 441.72900390625 L 277.0260009765625 455.7179870605469 L 198.79800415039062 469.7080078125 L 119.58799743652344 469.7080078125 L 119.58799743652344 441.72900390625 Z" fill="#D1D3D4" stroke="#000000" stroke-width="8" stroke-linecap="round" stroke-linejoin="round" transform="matrix(1, 0, 0, 1, 0, 0)"/><path d="M 165.944 475.998993 L 147.069 435.437988" fill="#D1D3D4" stroke="#000000" stroke-width="8" stroke-linecap="round" stroke-linejoin="round" transform="matrix(1, 0, 0, 1, 0, 0)"/><path d="M 187.337006 475.998993 L 168.460999 435.437988" fill="#D1D3D4" stroke="#000000" stroke-width="8" stroke-linecap="round" stroke-linejoin="round" transform="matrix(1, 0, 0, 1, 0, 0)"/><path d="M 208.729004 475.998993 L 189.854004 435.437988" fill="#D1D3D4" stroke="#000000" stroke-width="8" stroke-linecap="round" stroke-linejoin="round" transform="matrix(1, 0, 0, 1, 0, 0)"/><path d="M 227.990997 471.425995 L 212.223999 437.541992" fill="#D1D3D4" stroke="#000000" stroke-width="8" stroke-linecap="round" stroke-linejoin="round" transform="matrix(1, 0, 0, 1, 0, 0)"/><path d="M 248.175003 467.871002 L 235.949005 442.554993" fill="#D1D3D4" stroke="#000000" stroke-width="8" stroke-linecap="round" stroke-linejoin="round" transform="matrix(1, 0, 0, 1, 0, 0)"/><path d="M 267.325012 464.01001 L 259.367004 446.910004" fill="#D1D3D4" stroke="#000000" stroke-width="8" stroke-linecap="round" stroke-linejoin="round" transform="matrix(1, 0, 0, 1, 0, 0)"/></g></g><g transform="matrix(-0.003122436248843073, -0.9726847508235209, 0.9726847508235209, -0.003122436248843073, -110.83200191792999, 277.11068695232075)"><g transform="matrix(1, 0, 0, 1, 0, 0)"><path class="st13" d="M164.7,147.4l-12.6-12.6c-1.3-1.3-3.6-1.3-4.9,0c-1.2,1.2-3.4,1.2-4.6,0c-0.6-0.6-1-1.4-1-2.3&#10;&#9;&#9;&#9;&#9;&#9;c0-0.9,0.3-1.7,0.9-2.3c0.7-0.7,1-1.5,1-2.4c0-0.9-0.4-1.8-1-2.4l-9.5-9.5c-1-1-2.7-1-3.7,0l-16.6,16.6c-1,1-1,2.7,0,3.7&#10;&#9;&#9;&#9;&#9;&#9;l9.5,9.5c1.3,1.3,3.6,1.3,4.9,0c1.3-1.3,3.3-1.3,4.6,0c0.6,0.6,1,1.4,1,2.3c0,0.9-0.3,1.7-0.9,2.3c-0.7,0.7-1,1.5-1,2.4&#10;&#9;&#9;&#9;&#9;&#9;c0,0.9,0.4,1.8,1,2.4l2.2,2.2L48,243.2c-2.4,2.4-3.7,5.6-3.7,9c0,3.4,1.3,6.6,3.7,9c2.5,2.5,5.8,3.7,9,3.7c3.3,0,6.6-1.2,9-3.7&#10;&#9;&#9;&#9;&#9;&#9;l85.9-85.9l2.7,2.7c0.6,0.6,1.4,0.9,2.2,0.7c3.2-0.4,6.4,0.5,9,2.5s4.2,4.9,4.6,8.1l0.5,4.2c0.1,0.6,0.3,1.1,0.8,1.5l4,4&#10;&#9;&#9;&#9;&#9;&#9;c0.5,0.5,1.2,0.8,1.9,0.8c0.3,0,0.6-0.1,0.9-0.2c1-0.4,1.6-1.3,1.7-2.3l0.5-7.5C181.8,174.1,175.9,158.6,164.7,147.4z&#10;&#9;&#9;&#9;&#9;&#9; M146.3,173.6l-8.8-8.8l-3.7,3.7l8.8,8.8l-80.2,80.2c-2.9,2.9-7.7,2.9-10.7,0c-1.4-1.4-2.2-3.3-2.2-5.3c0-2,0.8-3.9,2.2-5.3&#10;&#9;&#9;&#9;&#9;&#9;l85.9-85.9l10.7,10.7L146.3,173.6z M169.2,177.2c-3.1-2.4-6.8-3.7-10.7-3.7c-0.3,0-0.6,0-0.9,0l-21-21c0.9-1.4,1.3-2.9,1.3-4.6&#10;&#9;&#9;&#9;&#9;&#9;c0-2.3-0.9-4.4-2.5-6c-2.9-2.9-7.3-3.3-10.6-1.1l-6.5-6.5l12.9-12.9l6.5,6.5c-0.9,1.4-1.3,2.9-1.3,4.6c0,2.3,0.9,4.4,2.5,6&#10;&#9;&#9;&#9;&#9;&#9;c2.9,2.9,7.3,3.3,10.6,1.1l11.5,11.5c9.7,9.7,15,22.9,14.6,36.6C174.8,183.5,172.6,179.8,169.2,177.2z" style="fill: rgb(51, 51, 51);" transform="matrix(1, 0, 0, 1, 7.219114195322618e-12, 1.8189894035458565e-12)"/></g></g><g transform="matrix(0.6156903505325317, 0.6561436653137206, -0.6561436653137206, 0.6156903505325317, -77.3078373221673, -591.6147887600586)"><g transform="matrix(2.7848072052001953, 0, 0, 2.7848072052001953, -725.022705078125, -983.7721557617188)"><g transform="matrix(0.9999999999999999, 0, 0, 0.9999999999999999, 105.71910401447954, -31.748461577103683)"><g transform="matrix(0.615264892578125, 0, 0, 0.615264892578125, 139.38949584960935, 208.5264129638672)"><path class="st7" d="M425.9,501.1c-0.5,0-1-0.2-1.4-0.6l-28.7-28.7c-0.8-0.8-0.8-2.1,0-2.9l59.9-59.9c0.8-0.8,2.1-0.8,2.9,0&#10;&#9;&#9;&#9;&#9;l20.4,20.4c0.5,0.5,0.7,1.3,0.5,2c-0.2,0.7-0.7,1.2-1.4,1.4l-6.8,1.8l0,7.4c0,0.9-0.6,1.7-1.5,2l-7.1,2l0,7.4&#10;&#9;&#9;&#9;&#9;c0,0.9-0.6,1.7-1.5,2l-7.1,2l0,7.4c0,0.9-0.6,1.7-1.5,2l-7.1,2l0,7.4c0,0.9-0.6,1.7-1.5,2l-7.1,2l0,7.4c0,0.9-0.6,1.7-1.5,2&#10;&#9;&#9;&#9;&#9;l-7.2,2l-0.2,7.7c0,0.8-0.5,1.5-1.3,1.8C426.4,501,426.1,501.1,425.9,501.1z M400.1,470.4l23.9,23.9l0.1-4.5&#10;&#9;&#9;&#9;&#9;c0-0.9,0.6-1.7,1.5-1.9l7.1-2l0-7.4c0-0.9,0.6-1.7,1.5-2l7.1-2l0-7.4c0-0.9,0.6-1.7,1.5-2l7.1-2l0-7.4c0-0.9,0.6-1.7,1.5-2l7.1-2&#10;&#9;&#9;&#9;&#9;l0-7.4c0-0.9,0.6-1.7,1.5-2l7.1-2l0-7.4c0-0.9,0.6-1.7,1.5-2l4.9-1.3l-16.4-16.4L400.1,470.4z" style="fill: rgb(51, 51, 51);" transform="matrix(0.9999999999999999, 0, 0, 0.9999999999999999, 5.4001247917767614e-12, 1.4779288903810084e-12)"/><path class="st7" d="M398.3,542c-2.3,0-4.5-0.9-6.2-2.6l-27.2-27.2c-1.7-1.7-2.6-3.9-2.6-6.2c0-2.3,0.9-4.6,2.6-6.2l30.9-30.9&#10;&#9;&#9;&#9;&#9;c0.8-0.8,2.1-0.8,2.9,0l28.7,28.7c0.6,0.6,0.8,1.7,0.3,2.4L406,537.6c-1.4,2.4-3.7,4-6.5,4.3C399.1,542,398.7,542,398.3,542z&#10;&#9;&#9;&#9;&#9; M397.2,473.3l-29.4,29.4c-0.9,0.9-1.4,2.1-1.4,3.3c0,1.3,0.5,2.5,1.4,3.3l27.2,27.2c1,1,2.5,1.5,4,1.3c1.5-0.2,2.7-1,3.5-2.3&#10;&#9;&#9;&#9;&#9;l0,0l20.9-36.2L397.2,473.3z M397.6,530.9c-0.9,0-1.7-0.3-2.4-1l-19.4-19.4c-2.4-2.4-2.4-6.4,0-8.8l16.2-16.2&#10;&#9;&#9;&#9;&#9;c2.4-2.4,6.2-2.4,8.6,0l12.7,12.7c1.9,1.9,2.3,5,1,7.3l-13.7,23.7c-0.5,0.9-1.4,1.5-2.5,1.7C397.9,530.9,397.8,530.9,397.6,530.9&#10;&#9;&#9;&#9;&#9;z M396.4,487.7c-0.5,0-1,0.2-1.4,0.6l-16.2,16.2c-0.8,0.8-0.8,2.2,0,3l18.8,18.8l13.3-23c0.5-0.8,0.3-1.8-0.3-2.4l-12.7-12.7&#10;&#9;&#9;&#9;&#9;C397.4,487.9,396.9,487.7,396.4,487.7z" style="fill: rgb(51, 51, 51);" transform="matrix(0.9999999999999999, 0, 0, 0.9999999999999999, 5.4001247917767614e-12, 1.4779288903810084e-12)"/></g></g></g></g></svg>