<?xml version="1.0" encoding="utf-8"?>
<svg id="master-artboard" viewBox="0 0 274.8451843261719 236.03079223632812" version="1.1" xmlns="http://www.w3.org/2000/svg" x="0px" y="0px" style="enable-background:new 0 0 336 235.2;" width="274.8451843261719px" height="236.03079223632812px"><rect id="ee-background" x="0" y="0" width="274.8451843261719" height="236.03079223632812" style="fill: white; fill-opacity: 0; pointer-events: none;"/><defs><style id="ee-google-fonts">@import url(https://fonts.googleapis.com/css?family=Audiowide:400);</style></defs>





















































































































































<g transform="matrix(0.9837038516998291, 0, 0, 0.9837038516998291, -632.9980926513672, -538.2220458984375)"><g transform="matrix(1, 0, 0, 1, 1.1368683772161603e-13, 0)"><path class="st3" d="M746.3,548.8h-92.7c-4.8,0-8.7,3.9-8.7,8.7v220.1c0,4.8,3.9,8.7,8.7,8.7h92.7c4.8,0,8.7-3.9,8.7-8.7V557.5&#10;&#9;C755.1,552.7,751.2,548.8,746.3,548.8L746.3,548.8z M669.7,563.5h60.6c3.5,0,6.4,2.9,6.4,6.4c0,3.5-2.9,6.4-6.4,6.4h-60.6&#10;&#9;c-3.5,0-6.4-2.9-6.4-6.4C663.3,566.4,666.1,563.5,669.7,563.5L669.7,563.5z M700,770.3c-5.4,0-9.8-4.4-9.8-9.8&#10;&#9;c0-5.4,4.4-9.8,9.8-9.8c5.4,0,9.8,4.4,9.8,9.8C709.8,765.9,705.4,770.3,700,770.3L700,770.3z M700,729.5c-7.5,0-13.5-6.1-13.5-13.5&#10;&#9;c0-7.5,6-13.5,13.5-13.5c7.5,0,13.5,6,13.5,13.5C713.5,723.4,707.5,729.5,700,729.5L700,729.5z M739.5,631.7c0,3.6-2.9,6.5-6.5,6.5&#10;&#9;H667c-3.6,0-6.5-2.9-6.5-6.5v-19.9c0-3.6,2.9-6.5,6.5-6.5H733c3.6,0,6.5,2.9,6.5,6.5V631.7z M739.5,631.7" style="fill: rgb(51, 51, 51); opacity: 1;" transform="matrix(1, 0, 0, 1, 1.1368683772161603e-13, 0)"/></g></g><g transform="matrix(0.12197489291429521, 0.06250152736902237, -0.06250152736902237, 0.12197489291429521, 91.26139646889715, 14.116900661215453)"><g transform="matrix(1, 0, 0, 1, 0, 0)">
			<path fill="#CCCCCC" d="M1853.8,710.5c-16.9-16.4-61.8-59.9-136-77.1c-91.3-21.2-192.2,5.3-299.9,78.9l-1.1,0.8l-0.8,1.1&#10;&#9;&#9;&#9;&#9;c-42.1,54.9-49.8,101.3-30.5,183.6l0.4,1.5l0.9,1.3c7.2,10.5,17.4,20.8,17.9,21.2l1.9,1.9l2.7,0.4c5.5,0.8,134.9,20.1,229.7,11.7&#10;&#9;&#9;&#9;&#9;c83-7.4,183.3-23,223.2-78.3C1897.4,808.5,1894,749.5,1853.8,710.5z M1753,662.3c45.6,36.1,74.6,92.5-24.2,153.3&#10;&#9;&#9;&#9;&#9;c-80.6,49.6-175.3,69.3-244.8,76.9l-1.3-1.2c0.4-10.5,2.9-62.7,13.1-119.6c15.2-6.6,25.5-11,27.6-11.8&#10;&#9;&#9;&#9;&#9;c7.7-2.9,18.7-19.6,16.6-31.7c-0.9-5-4.8-13.3-20.8-13.3c-3.3,0-6.9,0.2-10.7,0.6c4.3-15.1,9.2-29.7,15-42.9&#10;&#9;&#9;&#9;&#9;C1606.8,636.8,1684.2,633.4,1753,662.3z M1428.5,725.3c28.5-19.4,56.5-35.3,83.8-47.9c-4.9,12.3-9.1,25.6-12.8,39.2&#10;&#9;&#9;&#9;&#9;c-11.9,1.9-25.4,5.3-39.9,10c-0.4,0-0.8,0-1.3,0c-16.6,0.5-29.5,4.2-38.5,10.9C1422.5,733.5,1425.4,729.4,1428.5,725.3z&#10;&#9;&#9;&#9;&#9; M1407.9,768.1c0.1-0.8,0.2-1.8,0.3-2.8c0.4-2.3,1.1-5.1,2.3-8.5c0-0.1,0.1-0.2,0.1-0.2c0.3-0.7,0.5-1.5,0.8-2.1&#10;&#9;&#9;&#9;&#9;c0.3-0.6,0.5-1.2,0.8-1.8c0.3-0.5,0.6-1.1,0.8-1.6c0.3-0.4,0.5-0.9,0.8-1.3c0.2-0.4,0.5-0.8,0.7-1.2c0.3-0.4,0.6-0.8,0.8-1.1&#10;&#9;&#9;&#9;&#9;c0.3-0.3,0.5-0.7,0.8-1c0.3-0.3,0.5-0.6,0.8-0.9c0.3-0.3,0.6-0.6,0.8-0.9c0.3-0.3,0.5-0.6,0.8-0.8c0.3-0.3,0.6-0.5,0.9-0.8&#10;&#9;&#9;&#9;&#9;c0.3-0.2,0.5-0.5,0.8-0.7c0.3-0.2,0.6-0.5,0.9-0.7c0.3-0.2,0.5-0.4,0.8-0.7c0.3-0.2,0.6-0.4,0.9-0.6c0.3-0.2,0.6-0.4,0.8-0.6&#10;&#9;&#9;&#9;&#9;c0.3-0.2,0.6-0.4,0.8-0.5c0.3-0.2,0.6-0.4,0.8-0.5c0.3-0.2,0.6-0.3,0.9-0.5c0.3-0.2,0.5-0.3,0.8-0.5c0.3-0.2,0.6-0.3,0.9-0.4&#10;&#9;&#9;&#9;&#9;c0.3-0.1,0.5-0.3,0.8-0.4c0.3-0.1,0.6-0.3,0.9-0.4c0.3-0.1,0.5-0.3,0.8-0.4c0.3-0.1,0.6-0.2,0.8-0.4c0.3-0.1,0.5-0.2,0.8-0.3&#10;&#9;&#9;&#9;&#9;c0.3-0.1,0.6-0.2,0.8-0.3c0.3-0.1,0.5-0.2,0.8-0.3c0.3-0.1,0.5-0.2,0.8-0.3c0.3-0.1,0.5-0.2,0.8-0.3c0.3-0.1,0.5-0.2,0.8-0.3&#10;&#9;&#9;&#9;&#9;c0.3-0.1,0.5-0.2,0.8-0.2c0.3-0.1,0.5-0.2,0.8-0.2c0.3-0.1,0.5-0.1,0.8-0.2c0.2-0.1,0.5-0.1,0.7-0.2c0.3-0.1,0.5-0.1,0.8-0.2&#10;&#9;&#9;&#9;&#9;c0.2-0.1,0.5-0.1,0.7-0.2c0.2-0.1,0.5-0.1,0.7-0.2c0.3-0.1,0.5-0.1,0.8-0.2c0.2,0,0.5-0.1,0.7-0.1c0.2,0,0.5-0.1,0.7-0.1&#10;&#9;&#9;&#9;&#9;c0.2,0,0.5-0.1,0.7-0.1c0.2,0,0.5-0.1,0.7-0.1c0.2,0,0.5-0.1,0.7-0.1c0.2,0,0.5-0.1,0.7-0.1c0.2,0,0.5-0.1,0.7-0.1&#10;&#9;&#9;&#9;&#9;c0.2,0,0.5-0.1,0.7-0.1c0.2,0,0.5-0.1,0.7-0.1c0.2,0,0.5-0.1,0.7-0.1c0.2,0,0.4,0,0.7-0.1c0.2,0,0.5,0,0.7-0.1&#10;&#9;&#9;&#9;&#9;c0.2,0,0.5,0,0.7-0.1c0.2,0,0.4,0,0.7-0.1c0.2,0,0.4,0,0.7-0.1c0.2,0,0.4,0,0.7,0c0.2,0,0.4,0,0.7,0c0.2,0,0.4,0,0.6,0&#10;&#9;&#9;&#9;&#9;c0.2,0,0.4,0,0.6,0c0.2,0,0.4,0,0.6,0c0.2,0,0.4,0,0.6,0c0.2,0,0.4,0,0.6,0c0.2,0,0.4,0,0.6,0c0.2,0,0.4,0,0.6,0&#10;&#9;&#9;&#9;&#9;c0.1,0,0.2,0,0.2,0c0.1,0,0.3,0,0.4,0c0.2,0,0.4,0,0.7,0c0.2,0,0.4,0,0.7,0.1c0.2,0,0.5,0.1,0.7,0.1c0.3,0,0.5,0.1,0.8,0.2&#10;&#9;&#9;&#9;&#9;c0.3,0.1,0.6,0.2,0.9,0.3c1.5,1.4,2.9,3,4.2,4.6c0,0.2,0.1,0.5,0.1,0.8c0,0.2,0,0.5,0,0.7c0,0.2,0,0.4,0,0.6&#10;&#9;&#9;&#9;&#9;c0,0.2-0.1,0.4-0.1,0.6c0,0.2-0.1,0.4-0.1,0.5c0,0.2-0.1,0.3-0.1,0.5c0,0.2-0.1,0.3-0.2,0.5c-0.1,0.2-0.1,0.3-0.2,0.5&#10;&#9;&#9;&#9;&#9;c-0.1,0.2-0.1,0.3-0.2,0.5c-0.1,0.1-0.1,0.3-0.2,0.5c-0.1,0.1-0.1,0.3-0.2,0.4c-0.1,0.1-0.1,0.3-0.2,0.4&#10;&#9;&#9;&#9;&#9;c-0.1,0.1-0.1,0.3-0.2,0.4c-0.1,0.1-0.1,0.3-0.2,0.4c-0.1,0.1-0.2,0.3-0.2,0.4s-0.2,0.3-0.2,0.4c-0.1,0.1-0.2,0.3-0.2,0.4&#10;&#9;&#9;&#9;&#9;c-0.1,0.1-0.2,0.3-0.2,0.4c-0.1,0.1-0.2,0.3-0.2,0.4c-0.1,0.1-0.2,0.2-0.3,0.4c-0.1,0.1-0.2,0.2-0.3,0.4&#10;&#9;&#9;&#9;&#9;c-0.1,0.1-0.2,0.2-0.3,0.4c-0.1,0.1-0.2,0.2-0.3,0.3c-0.1,0.1-0.2,0.2-0.3,0.3c-0.1,0.1-0.2,0.2-0.3,0.4&#10;&#9;&#9;&#9;&#9;c-0.1,0.1-0.2,0.2-0.3,0.3c-0.1,0.1-0.2,0.2-0.3,0.3c-0.1,0.1-0.2,0.2-0.3,0.3c-0.1,0.1-0.2,0.2-0.3,0.3&#10;&#9;&#9;&#9;&#9;c-0.1,0.1-0.2,0.2-0.3,0.3c-0.1,0.1-0.2,0.2-0.3,0.3c-0.1,0.1-0.2,0.2-0.3,0.3c-0.1,0.1-0.2,0.2-0.3,0.3&#10;&#9;&#9;&#9;&#9;c-0.1,0.1-0.2,0.2-0.3,0.3s-0.2,0.2-0.3,0.3c-0.1,0.1-0.2,0.2-0.3,0.3c-0.1,0.1-0.2,0.2-0.3,0.3c0,0,0,0,0,0&#10;&#9;&#9;&#9;&#9;c-0.1,0.1-0.2,0.2-0.3,0.3c-0.1,0.1-0.2,0.2-0.3,0.3c-0.1,0.1-0.2,0.2-0.3,0.3c-0.1,0.1-0.2,0.2-0.3,0.3&#10;&#9;&#9;&#9;&#9;c-0.1,0.1-0.2,0.2-0.3,0.3c-0.1,0.1-0.2,0.2-0.3,0.3c-0.1,0.1-0.2,0.2-0.3,0.3c-0.1,0.1-0.2,0.2-0.3,0.3&#10;&#9;&#9;&#9;&#9;c-0.1,0.1-0.2,0.2-0.3,0.3c-0.1,0.1-0.2,0.2-0.3,0.3c-0.1,0.1-0.2,0.2-0.3,0.3c-0.1,0.1-0.2,0.2-0.3,0.3s-0.2,0.2-0.3,0.3&#10;&#9;&#9;&#9;&#9;c-0.1,0.1-0.2,0.2-0.3,0.3c-0.1,0.1-0.2,0.2-0.3,0.3c-0.1,0.1-0.2,0.2-0.3,0.3c-0.1,0.1-0.2,0.2-0.3,0.3&#10;&#9;&#9;&#9;&#9;c-0.1,0.1-0.2,0.2-0.3,0.3c-0.1,0.1-0.2,0.2-0.3,0.3c-0.1,0.1-0.2,0.2-0.3,0.2c-0.1,0.1-0.2,0.2-0.3,0.2&#10;&#9;&#9;&#9;&#9;c-0.1,0.1-0.2,0.2-0.3,0.2c-0.1,0.1-0.2,0.2-0.3,0.3c-0.1,0.1-0.2,0.2-0.3,0.2c-0.1,0.1-0.2,0.2-0.3,0.2&#10;&#9;&#9;&#9;&#9;c-0.1,0.1-0.2,0.2-0.3,0.2c-0.1,0.1-0.2,0.2-0.3,0.2c-0.1,0.1-0.2,0.2-0.3,0.2c-0.1,0.1-0.2,0.2-0.3,0.2&#10;&#9;&#9;&#9;&#9;c-0.1,0.1-0.2,0.2-0.4,0.2c-0.1,0.1-0.2,0.2-0.3,0.2c-0.1,0.1-0.2,0.2-0.3,0.2c-0.1,0.1-0.2,0.2-0.4,0.2&#10;&#9;&#9;&#9;&#9;c-0.1,0.1-0.2,0.2-0.4,0.2c-0.1,0.1-0.2,0.2-0.4,0.2c-0.1,0.1-0.2,0.1-0.4,0.2c-0.1,0.1-0.2,0.2-0.4,0.2&#10;&#9;&#9;&#9;&#9;c-0.1,0.1-0.2,0.2-0.4,0.2c-0.1,0.1-0.2,0.2-0.4,0.2c-0.1,0.1-0.2,0.1-0.4,0.2s-0.2,0.1-0.4,0.2c-0.1,0.1-0.2,0.1-0.4,0.2&#10;&#9;&#9;&#9;&#9;c-0.1,0.1-0.2,0.1-0.4,0.2c-0.1,0.1-0.2,0.1-0.4,0.2c-0.1,0.1-0.2,0.1-0.4,0.2s-0.2,0.1-0.4,0.2c-0.1,0.1-0.2,0.1-0.4,0.2&#10;&#9;&#9;&#9;&#9;c-0.1,0.1-0.3,0.1-0.4,0.2c-0.1,0.1-0.3,0.1-0.4,0.2c-0.1,0.1-0.3,0.1-0.4,0.2c-0.1,0.1-0.3,0.1-0.4,0.2&#10;&#9;&#9;&#9;&#9;c-0.1,0.1-0.3,0.1-0.4,0.2c-0.1,0.1-0.3,0.1-0.4,0.2c-0.1,0.1-0.3,0.1-0.4,0.2c-0.1,0.1-0.3,0.1-0.4,0.2&#10;&#9;&#9;&#9;&#9;c-0.1,0.1-0.3,0.1-0.4,0.2c-0.1,0.1-0.3,0.1-0.4,0.2c-0.1,0.1-0.3,0.1-0.4,0.2c-0.1,0.1-0.3,0.1-0.4,0.2&#10;&#9;&#9;&#9;&#9;c-0.1,0.1-0.3,0.1-0.4,0.2c-0.1,0.1-0.3,0.1-0.4,0.2c-0.1,0.1-0.3,0.1-0.4,0.2c-0.1,0.1-0.3,0.1-0.4,0.2&#10;&#9;&#9;&#9;&#9;c-0.1,0.1-0.3,0.1-0.4,0.2c-0.1,0.1-0.3,0.1-0.4,0.2c-0.1,0.1-0.3,0.1-0.4,0.2c-0.1,0.1-0.3,0.1-0.4,0.2&#10;&#9;&#9;&#9;&#9;c-0.2,0.1-0.3,0.2-0.5,0.2c-0.2,0.1-0.3,0.2-0.5,0.2c-0.2,0.1-0.4,0.2-0.5,0.3c-0.2,0.1-0.4,0.2-0.5,0.3&#10;&#9;&#9;&#9;&#9;c-0.2,0.1-0.5,0.2-0.7,0.3c-0.3,0.1-0.6,0.3-0.9,0.4c-0.6,0.3-1.3,0.6-1.9,0.9c-0.3,0.1-0.6,0.3-0.9,0.4&#10;&#9;&#9;&#9;&#9;c-0.2,0.1-0.4,0.2-0.7,0.3c-0.2,0.1-0.4,0.2-0.6,0.3c-0.2,0.1-0.4,0.2-0.5,0.2c-0.2,0.1-0.3,0.1-0.5,0.2&#10;&#9;&#9;&#9;&#9;c-0.2,0.1-0.3,0.1-0.5,0.2c-0.2,0.1-0.3,0.1-0.5,0.2c-0.1,0.1-0.3,0.1-0.4,0.2c-0.1,0.1-0.3,0.1-0.4,0.2&#10;&#9;&#9;&#9;&#9;c-0.1,0.1-0.3,0.1-0.4,0.2c-0.1,0.1-0.3,0.1-0.4,0.2c-0.1,0.1-0.3,0.1-0.4,0.2c-0.1,0.1-0.3,0.1-0.4,0.2&#10;&#9;&#9;&#9;&#9;c-0.1,0.1-0.3,0.1-0.4,0.2c-0.1,0.1-0.3,0.1-0.4,0.2c-0.1,0.1-0.3,0.1-0.4,0.2c-0.1,0.1-0.3,0.1-0.4,0.2&#10;&#9;&#9;&#9;&#9;c-0.1,0.1-0.3,0.1-0.4,0.2c-0.1,0.1-0.3,0.1-0.4,0.2c-0.1,0.1-0.3,0.1-0.4,0.2c-0.1,0.1-0.3,0.1-0.4,0.2&#10;&#9;&#9;&#9;&#9;c-0.1,0.1-0.3,0.1-0.4,0.2c-0.1,0.1-0.3,0.1-0.4,0.2c-0.1,0.1-0.3,0.1-0.4,0.2c-0.1,0.1-0.3,0.1-0.4,0.2&#10;&#9;&#9;&#9;&#9;c-0.1,0.1-0.3,0.1-0.4,0.2c-0.1,0-0.3,0.1-0.4,0.2c-0.1,0.1-0.3,0.1-0.4,0.2s-0.3,0.1-0.4,0.2c-0.1,0.1-0.3,0.1-0.4,0.1&#10;&#9;&#9;&#9;&#9;c-0.1,0.1-0.3,0.1-0.4,0.1c-0.1,0-0.3,0.1-0.4,0.1c-0.1,0.1-0.3,0.1-0.4,0.1c-0.1,0-0.3,0.1-0.4,0.1c-0.1,0.1-0.3,0.1-0.4,0.1&#10;&#9;&#9;&#9;&#9;c-0.2,0.1-0.3,0.1-0.4,0.1c-0.1,0-0.2,0.1-0.3,0.1c0,0-0.1,0-0.1,0c-0.1,0-0.3,0-0.5,0c-0.2,0-0.3,0-0.5-0.1&#10;&#9;&#9;&#9;&#9;c-0.2,0-0.4-0.1-0.6-0.1c-0.2-0.1-0.4-0.1-0.6-0.2c-0.2-0.1-0.4-0.2-0.6-0.4c-0.3-0.2-0.6-0.4-0.8-0.7c0,0,0,0,0-0.1&#10;&#9;&#9;&#9;&#9;c-0.5-0.7-1.1-1.9-1.3-3.9C1407.8,770.1,1407.8,769.2,1407.9,768.1z M1403.6,758.5c0.8-0.4,1.6-0.8,2.4-1.2&#10;&#9;&#9;&#9;&#9;c-3.1,9.6-3.1,16.4,0.1,20.2c3,3.6,7.5,3,7.7,3l0.2,0l0.2-0.1c1.3-0.4,32.3-10.9,47.6-26.2c10.8-10.8,10-18,8.6-21.3&#10;&#9;&#9;&#9;&#9;c-0.1-0.3-0.2-0.5-0.4-0.8c19.3-5.8,36.5-9,49.3-9c11.3,0,12.2,4.8,12.5,6.4c1.5,8.4-7.6,21-11.2,22.4c-7,2.6-95,41.3-130.8,57.1&#10;&#9;&#9;&#9;&#9;C1391.3,791.2,1395.8,774.9,1403.6,758.5z M1392.3,817.1c33.8-14.9,68.9-30.3,94.3-41.4c-10.5,61.7-12.3,116.3-12.3,117.2l0,0.5&#10;&#9;&#9;&#9;&#9;c-29.3,2.8-53.4,3.5-69.1,3.6c-1.3-1.6-2.5-3.2-3.7-4.8C1394.6,862.8,1391.5,838.6,1392.3,817.1z M1410.5,915.7&#10;&#9;&#9;&#9;&#9;c0,0-9.9-9.9-14.9-15.8c0.4,0,0.8,0.1,1.2,0.1c20.4,2.1,51.6,4.5,89.1,5.5l22.6,20.7C1453.7,922.3,1410.5,915.7,1410.5,915.7z&#10;&#9;&#9;&#9;&#9; M1867.4,832.2c-3.2,6.7-7.1,13.4-11.9,20c-0.1,0.1-0.2,0.2-0.2,0.3c-35.3,49-122.3,66.4-217.1,74.9&#10;&#9;&#9;&#9;&#9;c-37.6,3.3-81.1,2.2-119.9-0.4l1.5-1.7l-21.2-19.5c67.4,1.3,152.5-1.9,232.3-17.5c57.2-11.6,108.4-25.5,137.2-57.6&#10;&#9;&#9;&#9;&#9;c0.2-0.2,0.3-0.4,0.5-0.6C1868.3,830.6,1867.9,831.3,1867.4,832.2z" style="fill: rgb(51, 51, 51);"/>
			<path fill="#CCCCCC" d="M1867.4,832.2c-3,5.2-9.8,17-11.9,20C1860.3,845.6,1864.2,838.9,1867.4,832.2z" style="fill: rgb(51, 51, 51);"/>
		</g></g><g transform="matrix(0.3891379237174988, 0, 0, 0.3891379237174988, -131.63462829589844, -89.35965728759766)"><g transform="matrix(1, 0, 0, 1, 0, 0)"><path d="M1005.786,230.771H365.131c-21.53,0-39.045,17.515-39.045,39.045v347.08v58.198c0,21.525,17.515,39.038,39.045,39.038&#10;&#9;&#9;&#9;h258.367l-34.336,82.461h-38.055c-9.372,0-16.996,7.626-16.996,17.001s7.624,17.002,16.996,17.002h264.396&#10;&#9;&#9;&#9;c9.368,0,16.995-7.627,16.995-17.002s-7.627-17.001-16.995-17.001h-33.754l-34.341-82.461h258.379&#10;&#9;&#9;&#9;c21.525,0,39.044-17.513,39.044-39.038v-58.198v-347.08C1044.83,248.287,1027.312,230.771,1005.786,230.771z M780.727,799.871&#10;&#9;&#9;&#9;c0.013,0,0.025-0.011,0.039-0.011h34.736c7.568,0,13.728,6.165,13.728,13.734c0,7.571-6.159,13.733-13.728,13.733H551.106&#10;&#9;&#9;&#9;c-7.57,0-13.729-6.162-13.729-13.733c0-7.569,6.159-13.734,13.729-13.734h39.11c0.011,0,0.021,0.011,0.032,0.011h190.414&#10;&#9;&#9;&#9;C780.686,799.867,780.705,799.867,780.727,799.871z M778.205,796.594H592.702l34.335-82.461h116.83L778.205,796.594z&#10;&#9;&#9;&#9; M1041.563,675.095c0,19.723-16.051,35.77-35.776,35.77h-260.83H625.948H365.131c-19.728,0-35.777-16.047-35.777-35.77v-56.563&#10;&#9;&#9;&#9;h712.208V675.095z M1041.563,615.264H329.354V269.816c0-19.727,16.049-35.777,35.777-35.777h640.655&#10;&#9;&#9;&#9;c19.726,0,35.776,16.051,35.776,35.777V615.264z" transform="matrix(1, 0, 0, 1, 0, 0)" style="fill: rgb(51, 51, 51);"/><path d="M683.303,687.118c12.359,0,22.417-10.058,22.417-22.423c0-12.355-10.058-22.411-22.417-22.411&#10;&#9;&#9;&#9;c-12.36,0-22.416,10.056-22.416,22.411C660.887,677.061,670.943,687.118,683.303,687.118z M683.303,645.553&#10;&#9;&#9;&#9;c10.559,0,19.149,8.589,19.149,19.143c0,10.562-8.59,19.155-19.149,19.155c-10.559,0-19.148-8.594-19.148-19.155&#10;&#9;&#9;&#9;C664.155,654.142,672.745,645.553,683.303,645.553z" transform="matrix(1, 0, 0, 1, 0, 0)" style="fill: rgb(51, 51, 51);"/><path d="M868.08,560.641c-0.045,0.08-0.094,0.153-0.15,0.223C867.986,560.794,868.035,560.724,868.08,560.641z" transform="matrix(1, 0, 0, 1, 0, 0)" style="fill: rgb(51, 51, 51);"/><path d="M895.886,456.347c-0.055,0.115-0.135,0.217-0.214,0.316C895.751,456.561,895.831,456.462,895.886,456.347z" transform="matrix(1, 0, 0, 1, 0, 0)" style="fill: rgb(51, 51, 51);"/><path d="M914.824,392.518c0.054-0.073,0.107-0.137,0.146-0.217C914.932,392.381,914.878,392.448,914.824,392.518z" transform="matrix(1, 0, 0, 1, 0, 0)" style="fill: rgb(51, 51, 51);"/><path d="M914.824,392.518c-0.077,0.108-0.163,0.211-0.269,0.297C914.661,392.729,914.747,392.63,914.824,392.518z" transform="matrix(1, 0, 0, 1, 0, 0)" style="fill: rgb(51, 51, 51);"/><path d="M915.096,391.909c-0.029,0.134-0.062,0.269-0.125,0.393C915.034,392.177,915.066,392.043,915.096,391.909z" transform="matrix(1, 0, 0, 1, 0, 0)" style="fill: rgb(51, 51, 51);"/><path d="M895.672,456.663c-0.045,0.054-0.077,0.122-0.128,0.172C895.595,456.785,895.627,456.72,895.672,456.663z" transform="matrix(1, 0, 0, 1, 0, 0)" style="fill: rgb(51, 51, 51);"/><path d="M895.953,456.124c-0.023,0.076-0.035,0.153-0.067,0.223C895.918,456.277,895.93,456.2,895.953,456.124z" transform="matrix(1, 0, 0, 1, 0, 0)" style="fill: rgb(51, 51, 51);"/><path d="M884.426,504.761c0-0.003,0-0.007,0-0.01c0,0.297-0.102,0.581-0.255,0.836&#10;&#9;&#9;&#9;C884.318,505.341,884.426,505.066,884.426,504.761z" transform="matrix(1, 0, 0, 1, 0, 0)" style="fill: rgb(51, 51, 51);"/><path d="M867.93,560.863c-0.086,0.109-0.192,0.202-0.303,0.288C867.741,561.065,867.841,560.976,867.93,560.863z" transform="matrix(1, 0, 0, 1, 0, 0)" style="fill: rgb(51, 51, 51);"/><path d="M868.223,560.271c-0.031,0.131-0.079,0.255-0.143,0.37C868.146,560.525,868.191,560.404,868.223,560.271z" transform="matrix(1, 0, 0, 1, 0, 0)" style="fill: rgb(51, 51, 51);"/></g></g></svg>