<?xml version="1.0" encoding="utf-8"?>
<svg id="master-artboard" viewBox="0 0 274.8451843261719 236.03079223632812" version="1.1" xmlns="http://www.w3.org/2000/svg" x="0px" y="0px" style="enable-background:new 0 0 336 235.2;" width="274.8451843261719px" height="236.03079223632812px"><rect id="ee-background" x="0" y="0" width="274.8451843261719" height="236.03079223632812" style="fill: white; fill-opacity: 0; pointer-events: none;"/><defs><style id="ee-google-fonts">@import url(https://fonts.googleapis.com/css?family=Audiowide:400);</style></defs>





















































































































































<g transform="matrix(1.9326018095016482, 0, 0, 1.9326018095016482, -1524.3194381568114, -1126.1428421166258)"><g transform="matrix(1, 0, 0, 1, 0, 0)"><g transform="matrix(1, 0, 0, 1, 0, 0)">
		
		<g>
			<g>
				<path class="st2" d="M823.1,610.3c0,0,20,10.5,25.6,14.5c0.8-1.7,10.5-21.5,10.5-21.5S841.1,567.9,823.1,610.3" style="fill: rgb(51, 51, 51); opacity: 1;"/>
				<path class="st2" d="M842.3,589.6c0,0,12.8-4.2,26.1,27.2l1,2.3l-7.1,5.7h28.8l12.5-22.9l-7.3,3.8c0,0-4.9-16.2-11.9-16.1&#10;&#9;&#9;&#9;&#9;&#9;C873.3,589.7,845.9,589.6,842.3,589.6z" style="fill: rgb(51, 51, 51); opacity: 1;"/>
			</g>
			<g>
				<path class="st2" d="M846.3,694.5c0,0,0-22.6,1-29.4c-1.9,0.1-23.9,0.7-23.9,0.7S800.4,698.3,846.3,694.5" style="fill: rgb(51, 51, 51); opacity: 1;"/>
				<path class="st2" d="M819.1,687.2c0,0-9.6-9.4,11.9-35.8l1.6-1.9l8.3,3.6l-13.4-25.5l-26.1-0.4l6.7,4.7c0,0-12,11.9-8.7,18&#10;&#9;&#9;&#9;&#9;&#9;C804.7,659.7,817.4,684,819.1,687.2z" style="fill: rgb(51, 51, 51); opacity: 1;"/>
			</g>
			<g>
				<path class="st2" d="M911.5,628.1c0,0-19,12.2-25.3,15c1.1,1.6,13.5,19.7,13.5,19.7S939.4,664.7,911.5,628.1" style="fill: rgb(51, 51, 51); opacity: 1;"/>
				<path class="st2" d="M920,655c0,0-2.7,13.2-36.6,9.2l-2.5-0.3l-1.5-9l-14.2,25l13.8,22.2l0.3-8.2c0,0,16.5,3.7,19.9-2.4&#10;&#9;&#9;&#9;&#9;&#9;C904.6,681.9,918.2,658.1,920,655z" style="fill: rgb(51, 51, 51); opacity: 1;"/>
			</g>
		</g>
	</g></g></g></svg>